<svg xmlns="http://www.w3.org/2000/svg" xmlns:xlink="http://www.w3.org/1999/xlink" width="200" zoomAndPan="magnify" viewBox="0 0 150 112.499997" height="150" preserveAspectRatio="xMidYMid meet" version="1.0"><defs><g/><clipPath id="5f82ce85b4"><path d="M 0.332031 0 L 149.667969 0 L 149.667969 112.003906 L 0.332031 112.003906 Z M 0.332031 0 " clip-rule="nonzero"/></clipPath><clipPath id="88e58db0c8"><path d="M 109 15.292969 L 117.953125 15.292969 L 117.953125 35 L 109 35 Z M 109 15.292969 " clip-rule="nonzero"/></clipPath><clipPath id="bcd8bef66f"><path d="M 94.808594 18 L 102 18 L 102 36 L 94.808594 36 Z M 94.808594 18 " clip-rule="nonzero"/></clipPath><clipPath id="ee4f1b61b6"><path d="M 97 46 L 115 46 L 115 64.574219 L 97 64.574219 Z M 97 46 " clip-rule="nonzero"/></clipPath><clipPath id="ed5507a7f8"><path d="M 109 15.292969 L 117.953125 15.292969 L 117.953125 36 L 109 36 Z M 109 15.292969 " clip-rule="nonzero"/></clipPath><clipPath id="2beea3af15"><path d="M 94.808594 18 L 102 18 L 102 37 L 94.808594 37 Z M 94.808594 18 " clip-rule="nonzero"/></clipPath><clipPath id="cf2350691f"><path d="M 44 37 L 53 37 L 53 64.574219 L 44 64.574219 Z M 44 37 " clip-rule="nonzero"/></clipPath><clipPath id="14f8eb0541"><path d="M 51 19 L 55.039062 19 L 55.039062 23 L 51 23 Z M 51 19 " clip-rule="nonzero"/></clipPath><clipPath id="051188962d"><path d="M 42.34375 21 L 47 21 L 47 25 L 42.34375 25 Z M 42.34375 21 " clip-rule="nonzero"/></clipPath><clipPath id="ec6adaa351"><path d="M 42.34375 19 L 46 19 L 46 23 L 42.34375 23 Z M 42.34375 19 " clip-rule="nonzero"/></clipPath><clipPath id="b2d971f724"><path d="M 46 15.292969 L 51 15.292969 L 51 18 L 46 18 Z M 46 15.292969 " clip-rule="nonzero"/></clipPath><clipPath id="b09f9dc8a4"><path d="M 70 15.292969 L 80 15.292969 L 80 51 L 70 51 Z M 70 15.292969 " clip-rule="nonzero"/></clipPath><clipPath id="2bd17bd819"><path d="M 67.886719 49 L 82.074219 49 L 82.074219 63 L 67.886719 63 Z M 67.886719 49 " clip-rule="nonzero"/></clipPath><clipPath id="10c82ce120"><path d="M 74 49 L 76 49 L 76 64.574219 L 74 64.574219 Z M 74 49 " clip-rule="nonzero"/></clipPath></defs><g clip-path="url(#5f82ce85b4)"><path fill="#ffffff" d="M 0.332031 0 L 149.667969 0 L 149.667969 119.46875 L 0.332031 119.46875 Z M 0.332031 0 " fill-opacity="1" fill-rule="nonzero"/><path fill="#ffffff" d="M 0.332031 0 L 149.667969 0 L 149.667969 112.003906 L 0.332031 112.003906 Z M 0.332031 0 " fill-opacity="1" fill-rule="nonzero"/><path fill="#212529" d="M 0.332031 0 L 149.667969 0 L 149.667969 112.003906 L 0.332031 112.003906 Z M 0.332031 0 " fill-opacity="1" fill-rule="nonzero"/></g><g clip-path="url(#88e58db0c8)"><path fill="#212529" d="M 113.734375 30.671875 C 113.191406 31.214844 112.785156 31.894531 112.546875 32.625 C 112.308594 33.378906 112.171875 34.132812 111.777344 34.84375 C 111.933594 33.902344 111.953125 32.941406 111.839844 31.988281 C 111.746094 31.214844 111.027344 30.722656 110.601562 30.105469 C 110.113281 29.394531 109.925781 28.496094 110.082031 27.648438 C 110.207031 26.976562 110.539062 26.328125 110.5 25.648438 C 110.445312 24.75 109.75 23.933594 109.886719 23.035156 C 110.03125 22.125 110.957031 21.578125 111.519531 20.847656 C 112.152344 20 111.964844 18.910156 111.945312 17.929688 C 111.933594 17.425781 111.996094 16.894531 112.265625 16.472656 C 112.871094 15.542969 114.148438 15.125 115.023438 15.855469 C 115.738281 16.453125 116.21875 17.34375 116.332031 18.273438 C 116.375 18.640625 116.375 19.015625 116.519531 19.363281 C 116.695312 19.78125 117.070312 20.0625 117.339844 20.429688 C 117.871094 21.140625 117.945312 22.15625 117.539062 22.9375 C 117.082031 23.808594 116.105469 24.339844 115.71875 25.242188 C 115.230469 26.402344 115.832031 27.824219 115.3125 28.964844 C 114.980469 29.675781 114.285156 30.117188 113.734375 30.671875 Z M 113.734375 30.671875 " fill-opacity="1" fill-rule="nonzero"/></g><g clip-path="url(#bcd8bef66f)"><path fill="#212529" d="M 99.726562 31.914062 C 99.371094 32.46875 99.152344 33.117188 99.082031 33.777344 C 99.007812 34.457031 99.214844 35.117188 99.019531 35.773438 C 98.519531 35.011719 98.394531 34.300781 98.125 33.527344 C 97.90625 32.886719 97.46875 32.457031 97 32.019531 C 96.472656 31.515625 96.136719 30.785156 96.117188 30.054688 C 96.097656 29.46875 96.261719 28.871094 96.097656 28.304688 C 95.890625 27.5625 95.152344 27 95.109375 26.222656 C 95.046875 25.230469 95.980469 24.601562 95.710938 23.546875 C 95.609375 23.085938 95.367188 22.65625 95.210938 22.207031 C 94.996094 21.601562 94.921875 20.941406 94.984375 20.292969 C 95.027344 19.84375 95.160156 19.382812 95.492188 19.078125 C 95.691406 18.902344 95.941406 18.808594 96.191406 18.722656 C 96.960938 18.453125 97.90625 18.316406 98.507812 18.859375 C 99.039062 19.339844 99.101562 20.15625 99.539062 20.710938 C 99.746094 20.984375 100.039062 21.183594 100.296875 21.410156 C 101.089844 22.132812 101.816406 23.640625 101.515625 24.726562 C 101.285156 25.542969 100.566406 26.160156 100.414062 27 C 100.203125 28.066406 100.972656 29.144531 100.746094 30.199219 C 100.589844 30.859375 100.089844 31.359375 99.726562 31.914062 Z M 99.726562 31.914062 " fill-opacity="1" fill-rule="nonzero"/></g><path fill="#212529" d="M 102.605469 32.5 C 102.617188 31.777344 103.054688 31.046875 102.78125 30.386719 C 102.6875 30.167969 102.535156 29.988281 102.398438 29.792969 C 101.722656 28.796875 101.722656 27.40625 102.398438 26.421875 C 102.628906 26.097656 102.929688 25.804688 103.03125 25.417969 C 103.210938 24.738281 102.71875 23.953125 103.0625 23.347656 C 103.3125 22.898438 103.894531 22.773438 104.414062 22.71875 C 104.882812 22.667969 105.371094 22.644531 105.808594 22.792969 C 106.257812 22.9375 106.652344 23.304688 106.714844 23.777344 C 106.746094 24.058594 106.660156 24.332031 106.628906 24.613281 C 106.578125 25.050781 106.683594 25.492188 106.902344 25.878906 C 107.191406 26.382812 107.691406 26.746094 107.941406 27.269531 C 108.292969 28.023438 108.066406 28.902344 107.742188 29.664062 C 107.421875 30.429688 107.027344 31.203125 107.058594 32.03125 C 107.078125 32.65625 107.359375 33.253906 107.347656 33.882812 C 107.328125 34.800781 106.652344 35.410156 106.027344 35.984375 C 105.734375 36.257812 105.445312 36.550781 105.246094 36.90625 C 105.058594 37.25 105.027344 37.636719 104.820312 37.984375 C 104.75 37.753906 104.5 37.429688 104.363281 37.21875 C 104.175781 36.9375 104.0625 36.695312 103.96875 36.359375 C 103.84375 35.941406 103.625 35.585938 103.375 35.230469 C 102.84375 34.4375 102.585938 33.503906 102.605469 32.5 Z M 102.605469 32.5 " fill-opacity="1" fill-rule="nonzero"/><g clip-path="url(#ee4f1b61b6)"><path fill="#212529" d="M 113.671875 48.738281 C 113.453125 48.402344 113.171875 48.097656 112.828125 47.828125 C 111.808594 47.019531 110.445312 46.632812 109.179688 46.488281 C 107.609375 46.300781 106.007812 46.226562 104.4375 46.339844 C 102.410156 46.488281 99.714844 46.886719 98.488281 48.726562 C 97.457031 50.273438 97.738281 52.398438 98.625 54.039062 C 99.320312 55.335938 100.351562 56.363281 101.304688 57.460938 C 103.054688 59.4375 105.445312 61.855469 106.089844 64.5 C 106.027344 64.261719 106.265625 63.84375 106.351562 63.632812 C 106.484375 63.289062 106.640625 62.964844 106.828125 62.640625 C 108.617188 59.429688 111.820312 57.25 113.554688 54.039062 C 114.449219 52.398438 114.6875 50.285156 113.671875 48.738281 Z M 113.671875 48.738281 " fill-opacity="1" fill-rule="nonzero"/><path fill="#7ed957" d="M 105.945312 64.53125 C 105.382812 62.242188 103.5 60.148438 101.847656 58.296875 C 101.617188 58.046875 101.398438 57.804688 101.191406 57.566406 C 101.027344 57.378906 100.847656 57.179688 100.683594 56.992188 C 99.890625 56.113281 99.070312 55.203125 98.488281 54.113281 C 97.667969 52.597656 97.210938 50.367188 98.363281 48.640625 C 99.613281 46.769531 102.261719 46.351562 104.4375 46.195312 C 105.882812 46.089844 107.441406 46.140625 109.210938 46.351562 C 110.28125 46.476562 111.789062 46.8125 112.941406 47.722656 C 113.285156 47.992188 113.578125 48.308594 113.816406 48.664062 C 114.761719 50.105469 114.71875 52.242188 113.710938 54.125 C 112.828125 55.765625 111.539062 57.15625 110.300781 58.507812 C 109.09375 59.816406 107.859375 61.164062 106.984375 62.734375 C 106.808594 63.046875 106.652344 63.371094 106.515625 63.707031 C 106.496094 63.75 106.472656 63.800781 106.441406 63.863281 C 106.359375 64.042969 106.226562 64.34375 106.265625 64.480469 Z M 105.945312 46.445312 C 105.433594 46.445312 104.933594 46.464844 104.457031 46.496094 C 102.355469 46.65625 99.796875 47.050781 98.625 48.808594 C 97.542969 50.421875 98.03125 52.585938 98.769531 53.957031 C 99.339844 55.003906 100.140625 55.902344 100.921875 56.769531 C 101.097656 56.957031 101.265625 57.15625 101.429688 57.347656 C 101.640625 57.585938 101.859375 57.828125 102.085938 58.078125 C 103.625 59.804688 105.363281 61.730469 106.089844 63.863281 C 106.109375 63.8125 106.132812 63.757812 106.164062 63.707031 C 106.183594 63.652344 106.203125 63.601562 106.226562 63.558594 C 106.359375 63.214844 106.527344 62.871094 106.703125 62.546875 C 107.597656 60.945312 108.855469 59.585938 110.0625 58.265625 C 111.289062 56.9375 112.558594 55.558594 113.429688 53.945312 C 114.386719 52.167969 114.441406 50.160156 113.554688 48.808594 C 113.335938 48.484375 113.066406 48.191406 112.753906 47.941406 C 111.664062 47.082031 110.207031 46.757812 109.179688 46.632812 C 108.011719 46.519531 106.941406 46.445312 105.945312 46.445312 Z M 105.945312 46.445312 " fill-opacity="1" fill-rule="nonzero"/></g><g clip-path="url(#ed5507a7f8)"><path fill="#7ed957" d="M 111.476562 35.710938 L 111.621094 34.824219 C 111.777344 33.890625 111.796875 32.949219 111.683594 32.019531 C 111.621094 31.539062 111.300781 31.171875 110.957031 30.785156 C 110.789062 30.597656 110.625 30.410156 110.476562 30.210938 C 109.96875 29.46875 109.769531 28.527344 109.925781 27.625 C 109.96875 27.375 110.042969 27.125 110.113281 26.894531 C 110.238281 26.476562 110.351562 26.078125 110.332031 25.667969 C 110.3125 25.304688 110.175781 24.949219 110.019531 24.5625 C 109.832031 24.070312 109.636719 23.566406 109.71875 23.023438 C 109.824219 22.363281 110.300781 21.894531 110.757812 21.433594 C 110.976562 21.222656 111.195312 20.992188 111.371094 20.761719 C 111.859375 20.105469 111.828125 19.277344 111.789062 18.472656 C 111.777344 18.292969 111.765625 18.117188 111.765625 17.949219 C 111.757812 17.28125 111.871094 16.789062 112.121094 16.410156 C 112.484375 15.855469 113.066406 15.460938 113.691406 15.367188 C 114.210938 15.28125 114.710938 15.429688 115.105469 15.753906 C 115.855469 16.378906 116.351562 17.300781 116.46875 18.261719 C 116.476562 18.355469 116.488281 18.453125 116.5 18.546875 C 116.519531 18.816406 116.539062 19.070312 116.644531 19.300781 C 116.75 19.539062 116.933594 19.738281 117.121094 19.949219 C 117.238281 20.0625 117.339844 20.1875 117.445312 20.324219 C 118.015625 21.085938 118.101562 22.164062 117.652344 23.003906 C 117.425781 23.429688 117.082031 23.777344 116.75 24.109375 C 116.375 24.488281 116.03125 24.84375 115.832031 25.292969 C 115.605469 25.828125 115.625 26.433594 115.65625 27.0625 C 115.6875 27.71875 115.707031 28.410156 115.425781 29.015625 C 115.179688 29.550781 114.742188 29.9375 114.316406 30.3125 C 114.148438 30.460938 113.972656 30.617188 113.828125 30.773438 C 113.304688 31.296875 112.910156 31.957031 112.683594 32.667969 C 112.609375 32.886719 112.546875 33.109375 112.496094 33.328125 C 112.351562 33.851562 112.195312 34.394531 111.914062 34.917969 Z M 113.992188 15.648438 C 113.910156 15.648438 113.828125 15.660156 113.753906 15.667969 C 113.210938 15.753906 112.714844 16.085938 112.390625 16.570312 C 112.171875 16.902344 112.078125 17.332031 112.089844 17.9375 C 112.089844 18.105469 112.101562 18.285156 112.109375 18.453125 C 112.152344 19.320312 112.195312 20.207031 111.632812 20.953125 C 111.445312 21.203125 111.207031 21.433594 110.988281 21.652344 C 110.539062 22.09375 110.125 22.5 110.03125 23.066406 C 109.957031 23.523438 110.136719 23.976562 110.320312 24.445312 C 110.46875 24.832031 110.625 25.21875 110.65625 25.648438 C 110.6875 26.109375 110.550781 26.546875 110.425781 26.976562 C 110.351562 27.207031 110.289062 27.449219 110.238281 27.679688 C 110.09375 28.496094 110.269531 29.339844 110.738281 30.023438 C 110.863281 30.210938 111.019531 30.386719 111.183594 30.566406 C 111.550781 30.972656 111.921875 31.390625 111.996094 31.976562 C 112.070312 32.5625 112.089844 33.160156 112.058594 33.757812 C 112.109375 33.589844 112.152344 33.421875 112.203125 33.253906 C 112.265625 33.035156 112.328125 32.816406 112.402344 32.585938 C 112.652344 31.820312 113.066406 31.121094 113.628906 30.566406 C 113.796875 30.398438 113.972656 30.242188 114.136719 30.09375 C 114.554688 29.730469 114.949219 29.371094 115.167969 28.902344 C 115.417969 28.359375 115.394531 27.742188 115.375 27.09375 C 115.355469 26.453125 115.324219 25.796875 115.582031 25.1875 C 115.800781 24.675781 116.1875 24.289062 116.5625 23.914062 C 116.894531 23.578125 117.207031 23.261719 117.402344 22.875 C 117.789062 22.15625 117.714844 21.191406 117.226562 20.535156 C 117.132812 20.40625 117.027344 20.304688 116.925781 20.175781 C 116.71875 19.957031 116.507812 19.726562 116.382812 19.433594 C 116.269531 19.164062 116.238281 18.871094 116.21875 18.585938 C 116.207031 18.492188 116.195312 18.398438 116.1875 18.316406 C 116.074219 17.425781 115.613281 16.578125 114.929688 16.003906 C 114.605469 15.722656 114.261719 15.648438 113.992188 15.648438 Z M 113.992188 15.648438 " fill-opacity="1" fill-rule="nonzero"/></g><g clip-path="url(#2beea3af15)"><path fill="#7ed957" d="M 99.070312 36.140625 L 98.882812 35.859375 C 98.5 35.273438 98.320312 34.699219 98.15625 34.144531 C 98.09375 33.953125 98.042969 33.765625 97.96875 33.566406 C 97.769531 32.980469 97.375 32.585938 96.886719 32.125 C 96.316406 31.589844 95.980469 30.828125 95.953125 30.042969 C 95.941406 29.824219 95.960938 29.601562 95.980469 29.382812 C 96.011719 29.007812 96.035156 28.660156 95.941406 28.328125 C 95.859375 28.023438 95.679688 27.75 95.484375 27.457031 C 95.234375 27.082031 94.972656 26.683594 94.941406 26.214844 C 94.933594 25.742188 95.121094 25.34375 95.304688 24.957031 C 95.515625 24.519531 95.710938 24.109375 95.578125 23.578125 C 95.503906 23.304688 95.398438 23.054688 95.285156 22.78125 C 95.210938 22.613281 95.140625 22.4375 95.078125 22.257812 C 94.847656 21.632812 94.777344 20.941406 94.839844 20.273438 C 94.902344 19.675781 95.089844 19.234375 95.398438 18.964844 C 95.628906 18.765625 95.898438 18.660156 96.136719 18.578125 C 96.886719 18.316406 97.925781 18.128906 98.613281 18.746094 C 98.9375 19.039062 99.089844 19.425781 99.246094 19.8125 C 99.371094 20.105469 99.476562 20.386719 99.664062 20.617188 C 99.796875 20.785156 99.964844 20.929688 100.152344 21.078125 C 100.234375 21.152344 100.320312 21.214844 100.402344 21.296875 C 101.265625 22.082031 101.980469 23.660156 101.671875 24.78125 C 101.554688 25.1875 101.328125 25.542969 101.109375 25.878906 C 100.871094 26.253906 100.640625 26.621094 100.558594 27.03125 C 100.464844 27.519531 100.589844 28.011719 100.722656 28.535156 C 100.871094 29.089844 101.015625 29.65625 100.878906 30.230469 C 100.765625 30.722656 100.464844 31.128906 100.183594 31.527344 C 100.070312 31.683594 99.953125 31.839844 99.851562 32 C 99.507812 32.53125 99.300781 33.148438 99.238281 33.789062 C 99.207031 34.050781 99.226562 34.3125 99.246094 34.570312 C 99.269531 34.96875 99.300781 35.386719 99.175781 35.816406 Z M 97.417969 18.640625 C 97.011719 18.640625 96.597656 18.746094 96.242188 18.871094 C 96.023438 18.941406 95.785156 19.039062 95.597656 19.203125 C 95.347656 19.425781 95.191406 19.800781 95.140625 20.3125 C 95.078125 20.929688 95.152344 21.570312 95.359375 22.15625 C 95.421875 22.320312 95.492188 22.5 95.566406 22.65625 C 95.679688 22.929688 95.804688 23.199219 95.878906 23.503906 C 96.035156 24.140625 95.804688 24.625 95.585938 25.09375 C 95.410156 25.460938 95.253906 25.804688 95.273438 26.214844 C 95.296875 26.601562 95.523438 26.945312 95.765625 27.300781 C 95.960938 27.59375 96.160156 27.898438 96.261719 28.253906 C 96.367188 28.640625 96.335938 29.039062 96.316406 29.414062 C 96.292969 29.625 96.285156 29.832031 96.285156 30.03125 C 96.304688 30.734375 96.605469 31.414062 97.117188 31.894531 C 97.636719 32.386719 98.050781 32.816406 98.28125 33.464844 C 98.351562 33.660156 98.40625 33.859375 98.46875 34.050781 C 98.601562 34.488281 98.726562 34.90625 98.957031 35.335938 C 98.976562 35.09375 98.964844 34.855469 98.945312 34.59375 C 98.925781 34.320312 98.914062 34.039062 98.9375 33.757812 C 99.007812 33.066406 99.238281 32.394531 99.601562 31.832031 C 99.703125 31.664062 99.828125 31.496094 99.945312 31.339844 C 100.226562 30.953125 100.496094 30.585938 100.589844 30.15625 C 100.703125 29.65625 100.566406 29.152344 100.433594 28.609375 C 100.296875 28.074219 100.152344 27.519531 100.257812 26.96875 C 100.351562 26.496094 100.597656 26.097656 100.847656 25.710938 C 101.066406 25.375 101.265625 25.050781 101.367188 24.695312 C 101.640625 23.703125 100.972656 22.238281 100.195312 21.539062 C 100.121094 21.464844 100.027344 21.402344 99.953125 21.328125 C 99.765625 21.171875 99.582031 21.015625 99.425781 20.816406 C 99.214844 20.554688 99.089844 20.242188 98.964844 19.925781 C 98.820312 19.558594 98.675781 19.214844 98.414062 18.972656 C 98.136719 18.734375 97.78125 18.640625 97.417969 18.640625 Z M 97.417969 18.640625 " fill-opacity="1" fill-rule="nonzero"/></g><path fill="#7ed957" d="M 104.789062 38.347656 L 104.6875 38.015625 C 104.632812 37.867188 104.488281 37.648438 104.363281 37.46875 C 104.320312 37.40625 104.28125 37.34375 104.238281 37.292969 C 104.03125 36.96875 103.917969 36.714844 103.824219 36.390625 C 103.707031 35.984375 103.488281 35.648438 103.25 35.316406 C 102.6875 34.507812 102.417969 33.566406 102.441406 32.5 C 102.441406 32.207031 102.511719 31.925781 102.574219 31.652344 C 102.679688 31.222656 102.773438 30.816406 102.628906 30.449219 C 102.566406 30.304688 102.472656 30.179688 102.367188 30.042969 C 102.324219 29.988281 102.292969 29.9375 102.253906 29.886719 C 101.535156 28.839844 101.535156 27.375 102.253906 26.339844 C 102.316406 26.246094 102.386719 26.160156 102.449219 26.078125 C 102.628906 25.847656 102.792969 25.636719 102.855469 25.386719 C 102.929688 25.113281 102.875 24.824219 102.824219 24.507812 C 102.75 24.089844 102.6875 23.671875 102.90625 23.285156 C 103.199219 22.761719 103.84375 22.636719 104.375 22.574219 C 104.851562 22.519531 105.363281 22.5 105.839844 22.65625 C 106.390625 22.84375 106.785156 23.273438 106.847656 23.765625 C 106.878906 23.976562 106.839844 24.183594 106.808594 24.382812 C 106.785156 24.464844 106.777344 24.550781 106.765625 24.632812 C 106.722656 25.03125 106.808594 25.449219 107.015625 25.796875 C 107.140625 26.015625 107.304688 26.203125 107.484375 26.402344 C 107.703125 26.640625 107.917969 26.902344 108.066406 27.207031 C 108.472656 28.066406 108.148438 29.058594 107.878906 29.730469 C 107.828125 29.84375 107.785156 29.957031 107.734375 30.085938 C 107.460938 30.710938 107.179688 31.359375 107.210938 32.03125 C 107.222656 32.300781 107.285156 32.574219 107.359375 32.867188 C 107.429688 33.203125 107.515625 33.535156 107.503906 33.890625 C 107.484375 34.855469 106.796875 35.492188 106.183594 36.058594 L 106.132812 36.109375 C 105.851562 36.371094 105.570312 36.652344 105.382812 36.988281 C 105.300781 37.144531 105.246094 37.300781 105.195312 37.480469 C 105.132812 37.679688 105.070312 37.878906 104.957031 38.078125 Z M 102.761719 32.5 C 102.742188 33.496094 103 34.382812 103.519531 35.125 C 103.761719 35.472656 104 35.835938 104.136719 36.296875 C 104.21875 36.589844 104.320312 36.8125 104.507812 37.113281 C 104.539062 37.167969 104.582031 37.230469 104.625 37.292969 C 104.695312 37.398438 104.769531 37.5 104.832031 37.605469 C 104.863281 37.523438 104.882812 37.4375 104.914062 37.355469 C 104.964844 37.175781 105.027344 36.988281 105.121094 36.8125 C 105.332031 36.433594 105.632812 36.128906 105.933594 35.847656 L 105.984375 35.796875 C 106.578125 35.253906 107.191406 34.6875 107.203125 33.859375 C 107.210938 33.546875 107.140625 33.234375 107.058594 32.910156 C 106.996094 32.617188 106.921875 32.324219 106.910156 32.019531 C 106.878906 31.289062 107.171875 30.597656 107.460938 29.9375 C 107.515625 29.824219 107.566406 29.707031 107.609375 29.59375 C 107.867188 28.976562 108.160156 28.074219 107.804688 27.324219 C 107.679688 27.050781 107.484375 26.832031 107.273438 26.589844 C 107.097656 26.390625 106.910156 26.183594 106.777344 25.941406 C 106.535156 25.535156 106.433594 25.050781 106.484375 24.582031 C 106.496094 24.488281 106.515625 24.394531 106.527344 24.308594 C 106.558594 24.121094 106.589844 23.953125 106.566406 23.785156 C 106.515625 23.367188 106.132812 23.054688 105.765625 22.9375 C 105.371094 22.804688 104.957031 22.8125 104.4375 22.875 C 103.980469 22.929688 103.425781 23.035156 103.210938 23.429688 C 103.042969 23.722656 103.105469 24.078125 103.167969 24.457031 C 103.21875 24.789062 103.28125 25.136719 103.1875 25.472656 C 103.105469 25.785156 102.90625 26.035156 102.71875 26.277344 C 102.660156 26.359375 102.597656 26.445312 102.535156 26.527344 C 101.890625 27.449219 101.890625 28.785156 102.535156 29.71875 C 102.566406 29.769531 102.605469 29.824219 102.636719 29.863281 C 102.742188 30.011719 102.855469 30.167969 102.929688 30.347656 C 103.117188 30.804688 103 31.289062 102.898438 31.746094 C 102.824219 31.976562 102.761719 32.25 102.761719 32.5 Z M 102.761719 32.5 " fill-opacity="1" fill-rule="nonzero"/><path fill="#7ed957" d="M 107.503906 46.382812 L 107.242188 46.203125 C 109.667969 42.753906 110.769531 38.410156 111.746094 34.570312 C 112.039062 33.421875 112.339844 32.238281 112.546875 31.058594 C 112.777344 29.738281 112.902344 28.390625 113.027344 27.070312 L 113.523438 21.632812 L 113.835938 21.664062 L 113.335938 27.101562 C 113.210938 28.421875 113.089844 29.78125 112.859375 31.109375 C 112.652344 32.300781 112.339844 33.496094 112.046875 34.644531 C 111.070312 38.503906 109.957031 42.878906 107.503906 46.382812 Z M 107.503906 46.382812 " fill-opacity="1" fill-rule="nonzero"/><path fill="#7ed957" d="M 105.914062 46.332031 C 104.519531 41.078125 104.28125 35.472656 105.238281 30.117188 L 105.550781 30.167969 C 104.601562 35.472656 104.84375 41.035156 106.226562 46.246094 Z M 105.914062 46.332031 " fill-opacity="1" fill-rule="nonzero"/><path fill="#7ed957" d="M 103.03125 46.664062 C 100.921875 43.652344 99.964844 39.90625 99.121094 36.589844 C 98.875 35.609375 98.613281 34.582031 98.425781 33.558594 C 98.226562 32.417969 98.113281 31.246094 98.011719 30.117188 L 97.574219 25.449219 L 97.886719 25.417969 L 98.320312 30.085938 C 98.425781 31.214844 98.53125 32.375 98.738281 33.496094 C 98.914062 34.507812 99.175781 35.523438 99.425781 36.507812 C 100.265625 39.792969 101.210938 43.515625 103.292969 46.476562 Z M 103.03125 46.664062 " fill-opacity="1" fill-rule="nonzero"/><path fill="#7ed957" d="M 100.535156 48.671875 C 100.046875 48.671875 99.582031 48.609375 99.195312 48.496094 C 99.113281 48.476562 99.070312 48.378906 99.089844 48.296875 C 99.113281 48.214844 99.207031 48.171875 99.289062 48.191406 C 100.015625 48.414062 101.097656 48.402344 101.992188 48.171875 C 102.074219 48.152344 102.160156 48.203125 102.179688 48.285156 C 102.199219 48.371094 102.148438 48.453125 102.066406 48.476562 C 101.578125 48.609375 101.046875 48.671875 100.535156 48.671875 Z M 100.535156 48.671875 " fill-opacity="1" fill-rule="nonzero"/><path fill="#7ed957" d="M 105.976562 48.578125 C 105.488281 48.578125 105.019531 48.515625 104.632812 48.402344 C 104.550781 48.378906 104.507812 48.285156 104.53125 48.203125 C 104.550781 48.121094 104.644531 48.078125 104.726562 48.097656 C 105.457031 48.316406 106.535156 48.308594 107.429688 48.078125 C 107.515625 48.054688 107.597656 48.109375 107.617188 48.191406 C 107.640625 48.277344 107.585938 48.359375 107.503906 48.378906 C 107.027344 48.515625 106.484375 48.578125 105.976562 48.578125 Z M 105.976562 48.578125 " fill-opacity="1" fill-rule="nonzero"/><path fill="#7ed957" d="M 110.976562 48.484375 C 110.488281 48.484375 110.019531 48.421875 109.636719 48.308594 C 109.550781 48.285156 109.511719 48.191406 109.53125 48.109375 C 109.550781 48.023438 109.644531 47.984375 109.730469 48.003906 C 110.457031 48.222656 111.539062 48.214844 112.433594 47.984375 C 112.515625 47.960938 112.597656 48.015625 112.621094 48.097656 C 112.640625 48.183594 112.589844 48.265625 112.503906 48.285156 C 112.027344 48.421875 111.496094 48.484375 110.976562 48.484375 Z M 110.976562 48.484375 " fill-opacity="1" fill-rule="nonzero"/><path fill="#7ed957" d="M 100.753906 54.488281 C 100.265625 54.488281 99.796875 54.425781 99.414062 54.3125 C 99.332031 54.292969 99.289062 54.195312 99.308594 54.113281 C 99.332031 54.03125 99.425781 53.988281 99.507812 54.007812 C 100.234375 54.230469 101.316406 54.21875 102.210938 53.988281 C 102.292969 53.96875 102.378906 54.019531 102.398438 54.101562 C 102.417969 54.1875 102.367188 54.269531 102.285156 54.292969 C 101.804688 54.425781 101.265625 54.488281 100.753906 54.488281 Z M 100.753906 54.488281 " fill-opacity="1" fill-rule="nonzero"/><path fill="#7ed957" d="M 106.203125 54.394531 C 105.714844 54.394531 105.246094 54.332031 104.863281 54.21875 C 104.78125 54.195312 104.738281 54.101562 104.757812 54.019531 C 104.78125 53.9375 104.875 53.894531 104.957031 53.914062 C 105.683594 54.132812 106.765625 54.125 107.660156 53.894531 C 107.742188 53.871094 107.828125 53.925781 107.847656 54.007812 C 107.867188 54.09375 107.816406 54.175781 107.734375 54.195312 C 107.242188 54.332031 106.714844 54.394531 106.203125 54.394531 Z M 106.203125 54.394531 " fill-opacity="1" fill-rule="nonzero"/><path fill="#7ed957" d="M 105.976562 60.160156 C 105.488281 60.160156 105.019531 60.097656 104.632812 59.980469 C 104.550781 59.960938 104.507812 59.867188 104.53125 59.785156 C 104.550781 59.699219 104.644531 59.65625 104.726562 59.679688 C 105.457031 59.898438 106.535156 59.886719 107.429688 59.65625 C 107.515625 59.636719 107.597656 59.6875 107.617188 59.773438 C 107.640625 59.855469 107.585938 59.941406 107.503906 59.960938 C 107.027344 60.097656 106.484375 60.160156 105.976562 60.160156 Z M 105.976562 60.160156 " fill-opacity="1" fill-rule="nonzero"/><path fill="#7ed957" d="M 111.207031 54.300781 C 110.71875 54.300781 110.25 54.238281 109.863281 54.125 C 109.78125 54.101562 109.738281 54.007812 109.761719 53.925781 C 109.78125 53.839844 109.875 53.800781 109.957031 53.820312 C 110.6875 54.039062 111.765625 54.03125 112.660156 53.800781 C 112.746094 53.777344 112.828125 53.832031 112.847656 53.914062 C 112.871094 54 112.816406 54.082031 112.734375 54.101562 C 112.246094 54.238281 111.714844 54.300781 111.207031 54.300781 Z M 111.207031 54.300781 " fill-opacity="1" fill-rule="nonzero"/><path fill="#7ed957" d="M 103.519531 51.613281 C 103.03125 51.613281 102.566406 51.550781 102.179688 51.433594 C 102.097656 51.414062 102.054688 51.320312 102.074219 51.238281 C 102.097656 51.152344 102.191406 51.109375 102.273438 51.132812 C 103 51.351562 104.082031 51.339844 104.976562 51.109375 C 105.058594 51.089844 105.144531 51.140625 105.164062 51.226562 C 105.183594 51.308594 105.132812 51.394531 105.050781 51.414062 C 104.570312 51.550781 104.042969 51.613281 103.519531 51.613281 Z M 103.519531 51.613281 " fill-opacity="1" fill-rule="nonzero"/><path fill="#7ed957" d="M 108.535156 51.519531 C 108.042969 51.519531 107.578125 51.457031 107.191406 51.339844 C 107.109375 51.320312 107.066406 51.226562 107.089844 51.140625 C 107.109375 51.058594 107.203125 51.015625 107.285156 51.039062 C 108.011719 51.257812 109.09375 51.246094 109.988281 51.015625 C 110.074219 50.996094 110.15625 51.046875 110.175781 51.132812 C 110.195312 51.214844 110.144531 51.300781 110.0625 51.320312 C 109.574219 51.457031 109.042969 51.519531 108.535156 51.519531 Z M 108.535156 51.519531 " fill-opacity="1" fill-rule="nonzero"/><path fill="#7ed957" d="M 103.457031 57.460938 C 102.96875 57.460938 102.503906 57.398438 102.117188 57.285156 C 102.035156 57.261719 101.992188 57.167969 102.011719 57.085938 C 102.035156 57 102.128906 56.957031 102.210938 56.980469 C 102.9375 57.199219 104.019531 57.1875 104.914062 56.957031 C 104.996094 56.9375 105.082031 56.992188 105.101562 57.074219 C 105.121094 57.15625 105.070312 57.242188 104.988281 57.261719 C 104.507812 57.398438 103.96875 57.460938 103.457031 57.460938 Z M 103.457031 57.460938 " fill-opacity="1" fill-rule="nonzero"/><path fill="#7ed957" d="M 108.460938 57.367188 C 107.972656 57.367188 107.503906 57.304688 107.121094 57.1875 C 107.035156 57.167969 106.996094 57.074219 107.015625 56.992188 C 107.035156 56.90625 107.128906 56.863281 107.210938 56.886719 C 107.941406 57.105469 109.023438 57.09375 109.917969 56.863281 C 110 56.84375 110.082031 56.894531 110.105469 56.980469 C 110.125 57.0625 110.074219 57.148438 109.988281 57.167969 C 109.511719 57.304688 108.96875 57.367188 108.460938 57.367188 Z M 108.460938 57.367188 " fill-opacity="1" fill-rule="nonzero"/><g clip-path="url(#cf2350691f)"><path fill="#212529" d="M 48.648438 37.773438 C 47.757812 37.796875 46.8125 37.71875 45.953125 37.996094 C 45.355469 38.1875 44.789062 38.609375 44.910156 39.308594 C 45.074219 40.578125 45.136719 41.902344 45.378906 43.148438 C 46.148438 47.230469 46.824219 51.335938 47.386719 55.453125 C 47.660156 57.476562 47.921875 59.511719 48.136719 61.546875 C 48.234375 62.449219 48.386719 63.238281 48.476562 64.261719 C 48.484375 64.453125 48.800781 64.453125 48.824219 64.261719 C 48.898438 63.238281 49.0625 62.449219 49.160156 61.546875 C 49.386719 59.511719 49.636719 57.476562 49.910156 55.453125 C 50.476562 51.324219 51.136719 47.21875 51.921875 43.148438 C 52.160156 41.890625 52.226562 40.578125 52.386719 39.308594 C 52.476562 38.632812 52.160156 38.1875 51.574219 38.007812 C 50.671875 37.730469 49.703125 37.730469 48.769531 37.765625 C 48.726562 37.773438 48.691406 37.773438 48.648438 37.773438 Z M 48.648438 37.773438 " fill-opacity="1" fill-rule="nonzero"/><path fill="#7ed957" d="M 48.648438 64.574219 C 48.464844 64.574219 48.324219 64.453125 48.3125 64.273438 C 48.269531 63.660156 48.191406 63.128906 48.117188 62.605469 C 48.074219 62.269531 48.019531 61.914062 47.976562 61.558594 C 47.746094 59.535156 47.496094 57.488281 47.226562 55.472656 C 46.660156 51.371094 45.984375 47.230469 45.226562 43.183594 C 45.074219 42.359375 44.984375 41.503906 44.898438 40.679688 C 44.855469 40.234375 44.8125 39.777344 44.757812 39.332031 C 44.636719 38.664062 45.074219 38.097656 45.910156 37.832031 C 46.605469 37.609375 47.332031 37.609375 48.027344 37.609375 C 48.234375 37.609375 48.441406 37.609375 48.648438 37.597656 L 48.757812 37.597656 C 49.636719 37.5625 50.660156 37.5625 51.617188 37.851562 C 52.300781 38.066406 52.636719 38.597656 52.550781 39.332031 C 52.496094 39.777344 52.453125 40.234375 52.410156 40.679688 C 52.324219 41.503906 52.246094 42.359375 52.082031 43.183594 C 51.3125 47.230469 50.636719 51.371094 50.082031 55.472656 C 49.8125 57.488281 49.550781 59.535156 49.332031 61.558594 C 49.289062 61.914062 49.246094 62.261719 49.191406 62.605469 C 49.117188 63.128906 49.039062 63.660156 48.996094 64.273438 C 48.964844 64.453125 48.824219 64.574219 48.648438 64.574219 Z M 48.636719 64.238281 C 48.648438 64.238281 48.648438 64.238281 48.660156 64.238281 C 48.714844 63.617188 48.789062 63.082031 48.855469 62.558594 C 48.910156 62.214844 48.953125 61.882812 48.996094 61.527344 C 49.226562 59.488281 49.476562 57.441406 49.757812 55.429688 C 50.324219 51.324219 50.996094 47.175781 51.769531 43.113281 C 51.921875 42.3125 52.007812 41.457031 52.082031 40.644531 C 52.128906 40.199219 52.171875 39.734375 52.234375 39.289062 C 52.3125 38.722656 52.0625 38.332031 51.539062 38.175781 C 50.628906 37.898438 49.636719 37.910156 48.789062 37.941406 L 48.679688 37.941406 C 48.476562 37.953125 48.257812 37.953125 48.050781 37.953125 C 47.367188 37.953125 46.671875 37.953125 46.019531 38.164062 C 45.691406 38.265625 44.964844 38.578125 45.09375 39.289062 C 45.148438 39.746094 45.203125 40.210938 45.246094 40.65625 C 45.324219 41.480469 45.410156 42.324219 45.5625 43.125 C 46.332031 47.1875 47.007812 51.324219 47.574219 55.441406 C 47.84375 57.453125 48.105469 59.511719 48.332031 61.535156 C 48.378906 61.894531 48.421875 62.214844 48.464844 62.570312 C 48.507812 63.082031 48.582031 63.617188 48.636719 64.238281 Z M 48.636719 64.238281 " fill-opacity="1" fill-rule="nonzero"/></g><path fill="#7ed957" d="M 45.789062 39.511719 C 45.574219 39.511719 45.367188 39.453125 45.191406 39.332031 C 45.117188 39.277344 45.09375 39.175781 45.148438 39.097656 C 45.203125 39.019531 45.300781 39 45.378906 39.054688 C 45.628906 39.222656 45.996094 39.210938 46.3125 39.03125 C 46.386719 38.988281 46.484375 39.019531 46.527344 39.097656 C 46.574219 39.175781 46.539062 39.277344 46.464844 39.320312 C 46.257812 39.453125 46.019531 39.511719 45.789062 39.511719 Z M 45.789062 39.511719 " fill-opacity="1" fill-rule="nonzero"/><path fill="#7ed957" d="M 47.941406 39.433594 C 47.726562 39.433594 47.519531 39.378906 47.34375 39.253906 C 47.269531 39.199219 47.246094 39.097656 47.300781 39.019531 C 47.355469 38.941406 47.453125 38.921875 47.527344 38.976562 C 47.777344 39.144531 48.148438 39.132812 48.464844 38.953125 C 48.539062 38.910156 48.636719 38.941406 48.679688 39.019531 C 48.726562 39.097656 48.691406 39.199219 48.617188 39.242188 C 48.398438 39.367188 48.171875 39.433594 47.941406 39.433594 Z M 47.941406 39.433594 " fill-opacity="1" fill-rule="nonzero"/><path fill="#7ed957" d="M 49.921875 39.355469 C 49.703125 39.355469 49.496094 39.300781 49.324219 39.175781 C 49.246094 39.121094 49.226562 39.019531 49.277344 38.941406 C 49.332031 38.867188 49.429688 38.84375 49.507812 38.898438 C 49.757812 39.066406 50.128906 39.054688 50.441406 38.875 C 50.519531 38.832031 50.617188 38.867188 50.660156 38.941406 C 50.703125 39.019531 50.671875 39.121094 50.59375 39.164062 C 50.378906 39.289062 50.148438 39.355469 49.921875 39.355469 Z M 49.921875 39.355469 " fill-opacity="1" fill-rule="nonzero"/><path fill="#7ed957" d="M 47.226562 41.703125 C 47.007812 41.703125 46.800781 41.648438 46.628906 41.523438 C 46.550781 41.46875 46.527344 41.367188 46.582031 41.289062 C 46.636719 41.210938 46.734375 41.191406 46.8125 41.246094 C 47.0625 41.414062 47.429688 41.402344 47.746094 41.222656 C 47.824219 41.179688 47.921875 41.210938 47.964844 41.289062 C 48.007812 41.367188 47.976562 41.46875 47.898438 41.511719 C 47.679688 41.636719 47.453125 41.703125 47.226562 41.703125 Z M 47.226562 41.703125 " fill-opacity="1" fill-rule="nonzero"/><path fill="#7ed957" d="M 49.378906 41.625 C 49.160156 41.625 48.953125 41.570312 48.777344 41.445312 C 48.703125 41.390625 48.679688 41.289062 48.734375 41.210938 C 48.789062 41.136719 48.886719 41.113281 48.964844 41.167969 C 49.214844 41.335938 49.582031 41.324219 49.898438 41.144531 C 49.976562 41.101562 50.074219 41.136719 50.117188 41.210938 C 50.160156 41.289062 50.128906 41.390625 50.050781 41.433594 C 49.832031 41.558594 49.59375 41.625 49.378906 41.625 Z M 49.378906 41.625 " fill-opacity="1" fill-rule="nonzero"/><path fill="#7ed957" d="M 51.34375 41.535156 C 51.128906 41.535156 50.921875 41.480469 50.746094 41.355469 C 50.671875 41.300781 50.648438 41.203125 50.703125 41.125 C 50.757812 41.046875 50.855469 41.023438 50.929688 41.078125 C 51.179688 41.246094 51.550781 41.234375 51.867188 41.058594 C 51.941406 41.011719 52.039062 41.046875 52.082031 41.125 C 52.128906 41.203125 52.09375 41.300781 52.019531 41.347656 C 51.8125 41.480469 51.574219 41.535156 51.34375 41.535156 Z M 51.34375 41.535156 " fill-opacity="1" fill-rule="nonzero"/><path fill="#7ed957" d="M 46.398438 43.792969 C 46.179688 43.792969 45.976562 43.738281 45.800781 43.617188 C 45.726562 43.558594 45.703125 43.460938 45.757812 43.382812 C 45.8125 43.304688 45.910156 43.28125 45.984375 43.335938 C 46.234375 43.503906 46.605469 43.492188 46.921875 43.316406 C 46.996094 43.269531 47.09375 43.304688 47.136719 43.382812 C 47.179688 43.460938 47.148438 43.558594 47.074219 43.605469 C 46.855469 43.738281 46.628906 43.792969 46.398438 43.792969 Z M 46.398438 43.792969 " fill-opacity="1" fill-rule="nonzero"/><path fill="#7ed957" d="M 48.550781 43.714844 C 48.332031 43.714844 48.128906 43.660156 47.953125 43.539062 C 47.878906 43.480469 47.855469 43.382812 47.910156 43.304688 C 47.964844 43.226562 48.0625 43.203125 48.136719 43.257812 C 48.386719 43.425781 48.757812 43.414062 49.074219 43.238281 C 49.148438 43.191406 49.246094 43.226562 49.289062 43.304688 C 49.332031 43.382812 49.300781 43.480469 49.226562 43.527344 C 49.007812 43.660156 48.769531 43.714844 48.550781 43.714844 Z M 48.550781 43.714844 " fill-opacity="1" fill-rule="nonzero"/><path fill="#7ed957" d="M 48.574219 45.90625 C 48.355469 45.90625 48.148438 45.851562 47.976562 45.730469 C 47.898438 45.671875 47.878906 45.574219 47.929688 45.496094 C 47.984375 45.417969 48.082031 45.394531 48.160156 45.449219 C 48.410156 45.617188 48.777344 45.605469 49.09375 45.429688 C 49.171875 45.382812 49.269531 45.417969 49.3125 45.496094 C 49.355469 45.574219 49.324219 45.671875 49.246094 45.71875 C 49.027344 45.839844 48.789062 45.90625 48.574219 45.90625 Z M 48.574219 45.90625 " fill-opacity="1" fill-rule="nonzero"/><path fill="#7ed957" d="M 50.539062 45.828125 C 50.324219 45.828125 50.117188 45.773438 49.941406 45.652344 C 49.867188 45.597656 49.84375 45.496094 49.898438 45.417969 C 49.953125 45.339844 50.050781 45.316406 50.128906 45.375 C 50.378906 45.539062 50.746094 45.527344 51.0625 45.351562 C 51.136719 45.304688 51.234375 45.339844 51.277344 45.417969 C 51.324219 45.496094 51.289062 45.597656 51.214844 45.640625 C 51.007812 45.761719 50.769531 45.828125 50.539062 45.828125 Z M 50.539062 45.828125 " fill-opacity="1" fill-rule="nonzero"/><path fill="#7ed957" d="M 47.027344 48.5 C 46.8125 48.5 46.605469 48.445312 46.429688 48.320312 C 46.355469 48.265625 46.332031 48.164062 46.386719 48.085938 C 46.441406 48.007812 46.539062 47.988281 46.617188 48.042969 C 46.867188 48.210938 47.234375 48.199219 47.550781 48.019531 C 47.628906 47.976562 47.726562 48.007812 47.769531 48.085938 C 47.8125 48.164062 47.777344 48.265625 47.703125 48.308594 C 47.484375 48.445312 47.246094 48.5 47.027344 48.5 Z M 47.027344 48.5 " fill-opacity="1" fill-rule="nonzero"/><path fill="#7ed957" d="M 49.179688 48.421875 C 48.964844 48.421875 48.757812 48.367188 48.582031 48.242188 C 48.507812 48.1875 48.484375 48.085938 48.539062 48.007812 C 48.59375 47.933594 48.691406 47.910156 48.769531 47.964844 C 49.019531 48.132812 49.386719 48.121094 49.703125 47.941406 C 49.777344 47.898438 49.878906 47.933594 49.921875 48.007812 C 49.964844 48.085938 49.929688 48.1875 49.855469 48.230469 C 49.636719 48.355469 49.398438 48.421875 49.179688 48.421875 Z M 49.179688 48.421875 " fill-opacity="1" fill-rule="nonzero"/><path fill="#7ed957" d="M 48.019531 50.847656 C 47.800781 50.847656 47.59375 50.789062 47.421875 50.667969 C 47.34375 50.613281 47.324219 50.511719 47.378906 50.433594 C 47.429688 50.355469 47.527344 50.335938 47.605469 50.390625 C 47.855469 50.558594 48.226562 50.546875 48.539062 50.367188 C 48.617188 50.324219 48.714844 50.355469 48.757812 50.433594 C 48.800781 50.511719 48.769531 50.613281 48.691406 50.65625 C 48.476562 50.789062 48.246094 50.847656 48.019531 50.847656 Z M 48.019531 50.847656 " fill-opacity="1" fill-rule="nonzero"/><path fill="#7ed957" d="M 49.996094 50.769531 C 49.777344 50.769531 49.574219 50.714844 49.398438 50.589844 C 49.324219 50.535156 49.300781 50.433594 49.355469 50.355469 C 49.410156 50.277344 49.507812 50.257812 49.582031 50.3125 C 49.832031 50.480469 50.203125 50.46875 50.519531 50.289062 C 50.59375 50.246094 50.691406 50.277344 50.734375 50.355469 C 50.777344 50.433594 50.746094 50.535156 50.671875 50.578125 C 50.453125 50.714844 50.214844 50.769531 49.996094 50.769531 Z M 49.996094 50.769531 " fill-opacity="1" fill-rule="nonzero"/><path fill="#7ed957" d="M 48.605469 53.859375 C 48.386719 53.859375 48.179688 53.804688 48.007812 53.683594 C 47.929688 53.628906 47.910156 53.527344 47.964844 53.449219 C 48.019531 53.371094 48.117188 53.347656 48.191406 53.40625 C 48.441406 53.570312 48.8125 53.5625 49.128906 53.382812 C 49.203125 53.339844 49.300781 53.371094 49.34375 53.449219 C 49.386719 53.527344 49.355469 53.628906 49.277344 53.671875 C 49.0625 53.804688 48.832031 53.859375 48.605469 53.859375 Z M 48.605469 53.859375 " fill-opacity="1" fill-rule="nonzero"/><path fill="#7ed957" d="M 50.3125 37.875 C 50.300781 37.875 50.300781 37.875 50.289062 37.875 C 50.203125 37.863281 50.136719 37.785156 50.148438 37.699219 C 50.714844 32.070312 51.671875 26.460938 53.007812 21.03125 C 53.027344 20.945312 53.117188 20.886719 53.203125 20.910156 C 53.289062 20.933594 53.34375 21.023438 53.324219 21.109375 C 51.996094 26.527344 51.039062 32.125 50.476562 37.730469 C 50.464844 37.808594 50.398438 37.875 50.3125 37.875 Z M 50.3125 37.875 " fill-opacity="1" fill-rule="nonzero"/><path fill="#7ed957" d="M 47.082031 37.730469 C 46.996094 37.730469 46.929688 37.664062 46.921875 37.585938 C 46.355469 31.96875 45.398438 26.371094 44.074219 20.957031 C 44.050781 20.867188 44.105469 20.777344 44.191406 20.753906 C 44.28125 20.734375 44.367188 20.789062 44.386719 20.878906 C 45.726562 26.304688 46.679688 31.914062 47.246094 37.542969 C 47.257812 37.628906 47.191406 37.71875 47.105469 37.71875 C 47.09375 37.730469 47.082031 37.730469 47.082031 37.730469 Z M 47.082031 37.730469 " fill-opacity="1" fill-rule="nonzero"/><path fill="#7ed957" d="M 48.734375 37.929688 C 48.648438 37.929688 48.574219 37.851562 48.574219 37.765625 C 48.5625 30.832031 48.550781 23.660156 48.386719 16.605469 C 48.386719 16.515625 48.453125 16.4375 48.550781 16.4375 C 48.636719 16.4375 48.714844 16.503906 48.714844 16.605469 C 48.878906 23.667969 48.886719 30.84375 48.898438 37.773438 C 48.898438 37.863281 48.832031 37.929688 48.734375 37.929688 Z M 48.734375 37.929688 " fill-opacity="1" fill-rule="nonzero"/><path fill="#7ed957" d="M 50.953125 32 L 50.855469 31.777344 C 50.703125 31.445312 50.527344 31.121094 50.355469 30.777344 C 50.136719 30.367188 49.898438 29.933594 49.691406 29.441406 C 49.660156 29.355469 49.691406 29.265625 49.777344 29.21875 C 49.867188 29.1875 49.953125 29.21875 49.996094 29.308594 C 50.191406 29.789062 50.421875 30.210938 50.636719 30.609375 C 50.777344 30.878906 50.921875 31.144531 51.050781 31.414062 C 51.605469 30.824219 52.214844 30.289062 52.867188 29.820312 C 52.941406 29.765625 53.039062 29.789062 53.09375 29.867188 C 53.148438 29.945312 53.128906 30.042969 53.050781 30.097656 C 52.355469 30.601562 51.703125 31.191406 51.117188 31.824219 Z M 50.953125 32 " fill-opacity="1" fill-rule="nonzero"/><path fill="#7ed957" d="M 51.496094 29.53125 L 51.398438 29.308594 C 51.246094 28.976562 51.074219 28.652344 50.898438 28.308594 C 50.679688 27.898438 50.441406 27.464844 50.234375 26.972656 C 50.203125 26.882812 50.234375 26.796875 50.324219 26.75 C 50.410156 26.71875 50.496094 26.75 50.539062 26.839844 C 50.734375 27.320312 50.964844 27.742188 51.179688 28.140625 C 51.324219 28.410156 51.464844 28.675781 51.59375 28.941406 C 52.148438 28.351562 52.757812 27.820312 53.410156 27.351562 C 53.484375 27.296875 53.582031 27.320312 53.636719 27.394531 C 53.691406 27.472656 53.671875 27.574219 53.59375 27.628906 C 52.898438 28.128906 52.246094 28.71875 51.660156 29.355469 Z M 51.496094 29.53125 " fill-opacity="1" fill-rule="nonzero"/><path fill="#7ed957" d="M 51.832031 27.128906 L 51.734375 26.90625 C 51.582031 26.574219 51.410156 26.25 51.234375 25.90625 C 51.019531 25.492188 50.777344 25.058594 50.574219 24.570312 C 50.539062 24.480469 50.574219 24.394531 50.660156 24.347656 C 50.746094 24.316406 50.832031 24.347656 50.878906 24.4375 C 51.074219 24.914062 51.300781 25.339844 51.519531 25.738281 C 51.660156 26.003906 51.800781 26.273438 51.929688 26.539062 C 52.484375 25.949219 53.09375 25.417969 53.746094 24.949219 C 53.824219 24.894531 53.921875 24.914062 53.976562 24.992188 C 54.027344 25.070312 54.007812 25.171875 53.929688 25.226562 C 53.234375 25.726562 52.582031 26.316406 51.996094 26.953125 Z M 51.832031 27.128906 " fill-opacity="1" fill-rule="nonzero"/><path fill="#7ed957" d="M 52.34375 24.714844 L 52.246094 24.492188 C 52.09375 24.160156 51.921875 23.835938 51.746094 23.492188 C 51.527344 23.078125 51.289062 22.644531 51.082031 22.15625 C 51.050781 22.066406 51.082031 21.980469 51.171875 21.933594 C 51.257812 21.902344 51.34375 21.933594 51.386719 22.023438 C 51.582031 22.5 51.8125 22.925781 52.027344 23.324219 C 52.171875 23.589844 52.3125 23.859375 52.441406 24.125 C 52.996094 23.535156 53.605469 23.003906 54.257812 22.535156 C 54.332031 22.480469 54.429688 22.5 54.484375 22.578125 C 54.539062 22.65625 54.519531 22.757812 54.441406 22.8125 C 53.746094 23.3125 53.09375 23.902344 52.507812 24.539062 Z M 52.34375 24.714844 " fill-opacity="1" fill-rule="nonzero"/><g clip-path="url(#14f8eb0541)"><path fill="#7ed957" d="M 52.855469 22.65625 L 52.757812 22.433594 C 52.605469 22.101562 52.429688 21.777344 52.257812 21.433594 C 52.039062 21.023438 51.800781 20.589844 51.59375 20.097656 C 51.5625 20.007812 51.59375 19.921875 51.679688 19.875 C 51.769531 19.84375 51.855469 19.875 51.898438 19.964844 C 52.09375 20.445312 52.324219 20.867188 52.539062 21.265625 C 52.679688 21.535156 52.824219 21.800781 52.953125 22.066406 C 53.507812 21.476562 54.117188 20.945312 54.769531 20.476562 C 54.84375 20.421875 54.941406 20.445312 54.996094 20.519531 C 55.050781 20.597656 55.027344 20.699219 54.953125 20.753906 C 54.257812 21.253906 53.605469 21.84375 53.019531 22.480469 Z M 52.855469 22.65625 " fill-opacity="1" fill-rule="nonzero"/></g><path fill="#7ed957" d="M 46.257812 31.523438 L 46.09375 31.335938 C 45.53125 30.679688 44.898438 30.066406 44.226562 29.542969 C 44.148438 29.488281 44.136719 29.386719 44.191406 29.308594 C 44.246094 29.230469 44.34375 29.21875 44.421875 29.277344 C 45.0625 29.765625 45.648438 30.320312 46.179688 30.933594 C 46.324219 30.667969 46.464844 30.421875 46.617188 30.15625 C 46.84375 29.753906 47.082031 29.34375 47.300781 28.875 C 47.34375 28.796875 47.429688 28.753906 47.519531 28.796875 C 47.59375 28.84375 47.636719 28.929688 47.59375 29.019531 C 47.378906 29.5 47.128906 29.921875 46.886719 30.332031 C 46.691406 30.667969 46.507812 30.976562 46.355469 31.3125 Z M 46.257812 31.523438 " fill-opacity="1" fill-rule="nonzero"/><path fill="#7ed957" d="M 45.789062 29.03125 L 45.628906 28.84375 C 45.0625 28.1875 44.429688 27.574219 43.757812 27.050781 C 43.679688 26.996094 43.671875 26.894531 43.726562 26.816406 C 43.78125 26.738281 43.878906 26.730469 43.953125 26.785156 C 44.59375 27.273438 45.179688 27.832031 45.714844 28.441406 C 45.855469 28.175781 45.996094 27.929688 46.148438 27.664062 C 46.378906 27.261719 46.617188 26.851562 46.832031 26.382812 C 46.878906 26.304688 46.976562 26.261719 47.050781 26.304688 C 47.128906 26.351562 47.171875 26.441406 47.128906 26.527344 C 46.910156 27.007812 46.660156 27.429688 46.421875 27.839844 C 46.226562 28.175781 46.039062 28.488281 45.886719 28.820312 Z M 45.789062 29.03125 " fill-opacity="1" fill-rule="nonzero"/><path fill="#7ed957" d="M 45.539062 26.617188 L 45.378906 26.429688 C 44.8125 25.773438 44.179688 25.160156 43.507812 24.636719 C 43.429688 24.582031 43.421875 24.480469 43.476562 24.402344 C 43.53125 24.324219 43.628906 24.316406 43.703125 24.371094 C 44.332031 24.859375 44.929688 25.417969 45.464844 26.015625 C 45.605469 25.75 45.746094 25.503906 45.898438 25.238281 C 46.128906 24.835938 46.367188 24.425781 46.582031 23.957031 C 46.628906 23.882812 46.726562 23.835938 46.800781 23.882812 C 46.878906 23.925781 46.921875 24.015625 46.878906 24.101562 C 46.660156 24.582031 46.410156 25.003906 46.171875 25.417969 C 45.976562 25.75 45.789062 26.0625 45.636719 26.394531 Z M 45.539062 26.617188 " fill-opacity="1" fill-rule="nonzero"/><g clip-path="url(#051188962d)"><path fill="#7ed957" d="M 44.996094 24.191406 L 44.832031 24.003906 C 44.269531 23.347656 43.636719 22.734375 42.964844 22.210938 C 42.886719 22.15625 42.878906 22.054688 42.929688 21.980469 C 42.984375 21.902344 43.082031 21.890625 43.160156 21.945312 C 43.800781 22.433594 44.386719 22.992188 44.921875 23.601562 C 45.0625 23.335938 45.203125 23.089844 45.355469 22.824219 C 45.582031 22.421875 45.824219 22.011719 46.039062 21.542969 C 46.082031 21.46875 46.179688 21.421875 46.257812 21.46875 C 46.332031 21.511719 46.378906 21.601562 46.332031 21.6875 C 46.117188 22.167969 45.867188 22.589844 45.628906 23.003906 C 45.429688 23.335938 45.246094 23.648438 45.09375 23.980469 Z M 44.996094 24.191406 " fill-opacity="1" fill-rule="nonzero"/></g><g clip-path="url(#ec6adaa351)"><path fill="#7ed957" d="M 44.453125 22.113281 L 44.289062 21.921875 C 43.726562 21.265625 43.09375 20.65625 42.421875 20.132812 C 42.34375 20.078125 42.332031 19.976562 42.386719 19.898438 C 42.441406 19.820312 42.539062 19.808594 42.617188 19.863281 C 43.257812 20.355469 43.84375 20.910156 44.378906 21.523438 C 44.519531 21.253906 44.660156 21.011719 44.8125 20.742188 C 45.039062 20.34375 45.28125 19.933594 45.496094 19.464844 C 45.539062 19.386719 45.628906 19.34375 45.714844 19.386719 C 45.789062 19.429688 45.832031 19.519531 45.789062 19.609375 C 45.574219 20.085938 45.324219 20.511719 45.082031 20.921875 C 44.886719 21.253906 44.703125 21.566406 44.550781 21.902344 Z M 44.453125 22.113281 " fill-opacity="1" fill-rule="nonzero"/></g><path fill="#7ed957" d="M 48.582031 26.839844 L 48.464844 26.628906 C 48.027344 25.871094 47.527344 25.160156 46.953125 24.503906 C 46.886719 24.4375 46.898438 24.324219 46.964844 24.269531 C 47.027344 24.203125 47.136719 24.214844 47.191406 24.28125 C 47.726562 24.894531 48.203125 25.550781 48.628906 26.25 C 48.8125 26.015625 48.996094 25.792969 49.203125 25.5625 C 49.507812 25.214844 49.8125 24.847656 50.117188 24.4375 C 50.171875 24.359375 50.269531 24.347656 50.34375 24.402344 C 50.421875 24.460938 50.429688 24.558594 50.378906 24.636719 C 50.074219 25.070312 49.757812 25.4375 49.441406 25.785156 C 49.191406 26.074219 48.953125 26.351562 48.734375 26.640625 Z M 48.582031 26.839844 " fill-opacity="1" fill-rule="nonzero"/><path fill="#7ed957" d="M 48.691406 24.304688 L 48.550781 24.101562 C 48.34375 23.804688 48.117188 23.523438 47.867188 23.226562 C 47.574219 22.859375 47.269531 22.480469 46.976562 22.046875 C 46.921875 21.96875 46.941406 21.855469 47.019531 21.8125 C 47.09375 21.757812 47.191406 21.777344 47.246094 21.855469 C 47.527344 22.277344 47.832031 22.65625 48.128906 23.011719 C 48.324219 23.246094 48.507812 23.480469 48.679688 23.714844 C 48.929688 23.347656 49.203125 23.011719 49.484375 22.667969 C 49.703125 22.402344 49.929688 22.125 50.160156 21.8125 C 50.214844 21.734375 50.3125 21.722656 50.386719 21.777344 C 50.464844 21.835938 50.476562 21.933594 50.421875 22.011719 C 50.191406 22.324219 49.964844 22.613281 49.734375 22.878906 C 49.410156 23.28125 49.09375 23.660156 48.832031 24.09375 Z M 48.691406 24.304688 " fill-opacity="1" fill-rule="nonzero"/><path fill="#7ed957" d="M 48.59375 21.878906 L 48.476562 21.667969 C 48.039062 20.910156 47.539062 20.199219 46.964844 19.542969 C 46.898438 19.476562 46.910156 19.363281 46.976562 19.308594 C 47.039062 19.242188 47.148438 19.253906 47.203125 19.320312 C 47.734375 19.933594 48.214844 20.589844 48.636719 21.289062 C 48.824219 21.054688 49.007812 20.832031 49.214844 20.597656 C 49.519531 20.253906 49.824219 19.886719 50.128906 19.476562 C 50.179688 19.398438 50.277344 19.386719 50.355469 19.441406 C 50.429688 19.496094 50.441406 19.597656 50.386719 19.675781 C 50.082031 20.109375 49.769531 20.476562 49.453125 20.820312 C 49.203125 21.109375 48.964844 21.390625 48.746094 21.679688 Z M 48.59375 21.878906 " fill-opacity="1" fill-rule="nonzero"/><path fill="#7ed957" d="M 48.617188 19.554688 L 48.484375 19.34375 C 48.203125 18.875 47.867188 18.464844 47.519531 18.03125 C 47.3125 17.785156 47.105469 17.527344 46.898438 17.25 C 46.84375 17.171875 46.855469 17.074219 46.929688 17.015625 C 47.007812 16.960938 47.105469 16.972656 47.160156 17.050781 C 47.367188 17.316406 47.5625 17.574219 47.769531 17.816406 C 48.074219 18.195312 48.367188 18.550781 48.636719 18.964844 C 48.8125 18.730469 48.996094 18.496094 49.191406 18.261719 C 49.484375 17.90625 49.777344 17.539062 50.074219 17.105469 C 50.128906 17.027344 50.226562 17.007812 50.300781 17.0625 C 50.378906 17.117188 50.398438 17.21875 50.34375 17.296875 C 50.050781 17.730469 49.746094 18.105469 49.453125 18.472656 C 49.214844 18.773438 48.984375 19.054688 48.769531 19.351562 Z M 48.617188 19.554688 " fill-opacity="1" fill-rule="nonzero"/><g clip-path="url(#b2d971f724)"><path fill="#7ed957" d="M 48.574219 17.839844 L 48.441406 17.652344 C 48.214844 17.328125 47.964844 17.015625 47.726562 16.71875 C 47.429688 16.351562 47.128906 15.972656 46.84375 15.558594 C 46.789062 15.480469 46.8125 15.382812 46.886719 15.328125 C 46.964844 15.269531 47.0625 15.292969 47.117188 15.371094 C 47.398438 15.78125 47.691406 16.148438 47.984375 16.515625 C 48.179688 16.761719 48.386719 17.015625 48.582031 17.285156 C 48.757812 17.039062 48.953125 16.804688 49.148438 16.5625 C 49.441406 16.207031 49.734375 15.828125 50.019531 15.402344 C 50.074219 15.328125 50.171875 15.304688 50.246094 15.359375 C 50.300781 15.402344 50.324219 15.515625 50.277344 15.59375 C 49.984375 16.039062 49.679688 16.40625 49.386719 16.773438 C 49.148438 17.074219 48.921875 17.351562 48.703125 17.652344 Z M 48.574219 17.839844 " fill-opacity="1" fill-rule="nonzero"/></g><path fill="#212529" d="M 68.734375 53.074219 C 67.90625 54.5 67.839844 56.292969 68.542969 57.777344 C 69.4375 59.648438 71.101562 61.273438 73.214844 61.867188 C 75.011719 62.367188 77 62.421875 78.6875 61.574219 C 80.097656 60.875 81.234375 59.671875 81.671875 58.210938 C 82.195312 56.425781 81.671875 54.632812 80.8125 52.984375 C 80.007812 51.445312 78.074219 50.421875 76.398438 50.140625 C 74.722656 49.863281 72.925781 49.984375 71.382812 50.6875 C 70.265625 51.210938 69.335938 52.035156 68.734375 53.074219 Z M 68.734375 53.074219 " fill-opacity="1" fill-rule="nonzero"/><g clip-path="url(#b09f9dc8a4)"><path fill="#7ed957" d="M 79.238281 15.480469 L 79.167969 15.292969 L 78.992188 15.382812 C 78.566406 15.605469 78.277344 16.117188 78.039062 16.574219 C 76.679688 19.195312 75.695312 22.503906 75.113281 26.402344 C 75.003906 25.890625 74.878906 25.378906 74.746094 24.855469 L 74.734375 24.820312 C 74.230469 22.757812 73.449219 20.242188 72.722656 19.972656 C 72.589844 19.917969 72.445312 19.941406 72.332031 20.019531 C 71.738281 20.417969 71.863281 21.644531 71.941406 22.378906 C 71.953125 22.535156 71.972656 22.671875 71.972656 22.757812 C 71.972656 22.914062 72.007812 23.71875 72.050781 23.984375 C 72.777344 28.296875 73.257812 32.222656 73.484375 35.964844 C 73.472656 35.886719 73.460938 35.820312 73.4375 35.742188 C 73.316406 35.03125 73.203125 34.304688 73.101562 33.59375 C 72.824219 31.6875 72.53125 29.726562 71.828125 27.886719 C 71.738281 27.664062 71.503906 27.53125 71.226562 27.5625 C 70.945312 27.597656 70.734375 27.773438 70.699219 28.019531 C 70.566406 28.933594 70.523438 29.859375 70.554688 30.773438 C 70.609375 32.1875 70.890625 33.59375 71.148438 34.941406 L 71.371094 36.121094 C 71.816406 38.472656 72.277344 40.8125 72.722656 43.164062 L 73.503906 47.277344 C 73.515625 47.332031 73.527344 47.445312 73.550781 47.589844 C 73.726562 48.914062 73.984375 50.175781 74.566406 50.355469 C 74.601562 50.363281 74.644531 50.363281 74.679688 50.363281 C 74.746094 50.363281 74.824219 50.34375 74.878906 50.308594 C 74.902344 50.296875 74.925781 50.285156 74.933594 50.265625 C 75.011719 50.386719 75.113281 50.488281 75.226562 50.53125 C 75.28125 50.554688 75.335938 50.566406 75.394531 50.566406 C 75.449219 50.566406 75.503906 50.554688 75.5625 50.519531 C 75.773438 50.410156 76.0625 50.0625 76.375 48.347656 C 76.375 48.335938 76.375 48.324219 76.375 48.3125 C 76.523438 47.667969 76.578125 46.976562 76.609375 46.417969 C 76.621094 46.273438 76.632812 46.140625 76.644531 46.019531 C 76.6875 45.496094 76.710938 44.9375 76.710938 44.335938 C 76.789062 43.289062 76.84375 42.21875 76.902344 41.179688 C 76.945312 40.3125 76.992188 39.421875 77.058594 38.550781 C 77.292969 35.285156 77.726562 32 78.152344 28.832031 C 78.65625 25.101562 79.167969 21.234375 79.347656 17.367188 C 79.414062 16.71875 79.4375 16.050781 79.238281 15.480469 Z M 74.746094 49.984375 C 74.746094 49.996094 74.734375 50.007812 74.710938 50.019531 C 74.699219 50.019531 74.679688 50.03125 74.667969 50.03125 C 74.207031 49.886719 73.964844 48.125 73.886719 47.535156 C 73.863281 47.390625 73.851562 47.277344 73.839844 47.199219 L 73.058594 43.085938 C 72.609375 40.734375 72.152344 38.394531 71.707031 36.042969 L 71.484375 34.863281 C 71.226562 33.523438 70.957031 32.144531 70.902344 30.75 C 70.867188 29.859375 70.914062 28.945312 71.046875 28.066406 C 71.058594 27.964844 71.171875 27.910156 71.28125 27.898438 C 71.292969 27.898438 71.304688 27.898438 71.328125 27.898438 C 71.414062 27.898438 71.503906 27.929688 71.539062 28.007812 C 72.21875 29.804688 72.511719 31.753906 72.789062 33.648438 C 72.890625 34.359375 73.003906 35.097656 73.125 35.808594 C 73.28125 36.667969 73.460938 37.527344 73.605469 38.171875 L 73.640625 38.898438 C 73.796875 42.128906 73.953125 45.472656 74.476562 48.738281 C 74.488281 48.78125 74.488281 48.835938 74.5 48.882812 C 74.5 48.894531 74.5 48.914062 74.511719 48.925781 C 74.523438 48.960938 74.523438 48.992188 74.53125 49.027344 C 74.53125 49.050781 74.542969 49.0625 74.542969 49.082031 C 74.554688 49.117188 74.554688 49.148438 74.566406 49.171875 C 74.566406 49.195312 74.578125 49.214844 74.578125 49.226562 C 74.589844 49.261719 74.589844 49.285156 74.601562 49.316406 C 74.601562 49.339844 74.609375 49.363281 74.609375 49.382812 C 74.621094 49.417969 74.621094 49.441406 74.632812 49.472656 C 74.644531 49.496094 74.644531 49.519531 74.65625 49.539062 C 74.667969 49.5625 74.667969 49.59375 74.679688 49.617188 C 74.6875 49.640625 74.6875 49.664062 74.699219 49.683594 C 74.710938 49.707031 74.722656 49.742188 74.734375 49.761719 C 74.746094 49.785156 74.757812 49.808594 74.757812 49.828125 C 74.765625 49.851562 74.765625 49.863281 74.777344 49.886719 C 74.765625 49.90625 74.757812 49.953125 74.746094 49.984375 Z M 76.332031 45.996094 C 76.320312 46.128906 76.308594 46.261719 76.296875 46.410156 C 76.253906 47.042969 76.199219 47.777344 76.019531 48.449219 C 76.007812 48.46875 76.007812 48.492188 76.019531 48.515625 C 75.726562 49.976562 75.492188 50.199219 75.425781 50.230469 C 75.425781 50.230469 75.402344 50.242188 75.371094 50.230469 C 75.292969 50.199219 75.179688 50.0625 75.113281 49.851562 L 75.113281 49.839844 L 75.089844 49.796875 C 74.933594 49.460938 74.855469 49.0625 74.800781 48.683594 C 74.277344 45.4375 74.121094 42.105469 73.964844 38.886719 L 73.929688 38.140625 C 73.90625 37.660156 73.886719 37.179688 73.863281 36.710938 C 73.648438 32.722656 73.167969 28.554688 72.375 23.941406 C 72.34375 23.742188 72.320312 23.105469 72.308594 22.757812 C 72.308594 22.660156 72.296875 22.527344 72.277344 22.359375 C 72.207031 21.746094 72.097656 20.585938 72.523438 20.296875 C 72.554688 20.273438 72.578125 20.273438 72.609375 20.285156 C 73.046875 20.453125 73.761719 22.269531 74.433594 24.910156 L 74.445312 24.945312 C 74.65625 25.769531 74.84375 26.59375 75.003906 27.40625 C 75.101562 27.917969 75.203125 28.464844 75.304688 29.011719 C 75.527344 30.347656 75.707031 31.71875 75.839844 33.089844 C 76.050781 35.320312 76.152344 37.582031 76.242188 39.699219 C 76.265625 40.199219 76.285156 40.703125 76.320312 41.203125 C 76.375 42.230469 76.433594 43.277344 76.421875 44.3125 C 76.410156 44.925781 76.375 45.472656 76.332031 45.996094 Z M 79.058594 17.34375 C 78.878906 21.199219 78.355469 25.054688 77.851562 28.789062 C 77.425781 31.964844 76.980469 35.253906 76.757812 38.527344 C 76.699219 39.296875 76.65625 40.089844 76.621094 40.847656 C 76.621094 40.792969 76.609375 40.734375 76.609375 40.679688 C 76.609375 40.578125 76.601562 40.492188 76.601562 40.390625 C 76.589844 40.15625 76.578125 39.933594 76.566406 39.699219 C 76.488281 37.570312 76.375 35.296875 76.164062 33.070312 C 76.03125 31.6875 75.851562 30.304688 75.628906 28.96875 C 75.605469 28.832031 75.582031 28.6875 75.5625 28.554688 C 75.550781 28.519531 75.550781 28.476562 75.539062 28.445312 C 75.515625 28.34375 75.503906 28.242188 75.484375 28.152344 C 75.472656 28.121094 75.472656 28.085938 75.460938 28.054688 C 75.4375 27.953125 75.425781 27.851562 75.402344 27.753906 C 75.402344 27.730469 75.394531 27.707031 75.394531 27.675781 C 75.371094 27.574219 75.347656 27.472656 75.335938 27.375 C 75.882812 23.105469 76.902344 19.527344 78.355469 16.730469 C 78.542969 16.363281 78.746094 16.007812 78.992188 15.792969 C 79.089844 16.273438 79.078125 16.796875 79.058594 17.34375 Z M 79.058594 17.34375 " fill-opacity="1" fill-rule="nonzero"/></g><path fill="#7ed957" d="M 74.980469 50.265625 C 74.925781 50.265625 74.867188 50.242188 74.835938 50.1875 C 74.777344 50.109375 74.734375 50.019531 74.6875 49.917969 C 74.644531 49.839844 74.6875 49.742188 74.765625 49.695312 C 74.84375 49.652344 74.945312 49.695312 74.992188 49.773438 C 75.035156 49.851562 75.070312 49.929688 75.113281 49.996094 C 75.167969 50.074219 75.148438 50.175781 75.070312 50.230469 C 75.035156 50.253906 75.011719 50.265625 74.980469 50.265625 Z M 74.980469 50.265625 " fill-opacity="1" fill-rule="nonzero"/><g clip-path="url(#2bd17bd819)"><path fill="#7ed957" d="M 75.773438 62.402344 C 74.8125 62.402344 73.90625 62.234375 73.179688 62.023438 C 71.171875 61.464844 69.382812 59.90625 68.398438 57.84375 C 67.660156 56.316406 67.738281 54.453125 68.589844 52.984375 C 69.203125 51.914062 70.152344 51.066406 71.328125 50.53125 C 72.777344 49.863281 74.601562 49.671875 76.441406 49.976562 C 78.085938 50.242188 80.117188 51.257812 80.980469 52.90625 C 82.03125 54.921875 82.320312 56.671875 81.851562 58.253906 C 81.425781 59.703125 80.308594 60.964844 78.789062 61.730469 C 77.785156 62.222656 76.746094 62.402344 75.773438 62.402344 Z M 74.765625 50.175781 C 73.570312 50.175781 72.445312 50.398438 71.472656 50.84375 C 70.355469 51.34375 69.460938 52.148438 68.878906 53.160156 C 68.085938 54.542969 68.019531 56.28125 68.699219 57.707031 C 69.640625 59.679688 71.347656 61.175781 73.269531 61.710938 C 74.679688 62.101562 76.757812 62.378906 78.632812 61.429688 C 80.074219 60.707031 81.125 59.527344 81.527344 58.164062 C 81.960938 56.671875 81.695312 55 80.675781 53.0625 C 79.875 51.523438 77.941406 50.566406 76.386719 50.308594 C 75.839844 50.21875 75.292969 50.175781 74.765625 50.175781 Z M 68.734375 53.074219 Z M 68.734375 53.074219 " fill-opacity="1" fill-rule="nonzero"/></g><path fill="#7ed957" d="M 73.953125 63.726562 C 73.90625 63.726562 73.863281 63.714844 73.828125 63.683594 C 73.761719 63.617188 73.761719 63.515625 73.828125 63.449219 C 74.175781 63.101562 74.476562 62.710938 74.699219 62.277344 C 74.746094 62.1875 74.8125 62.132812 74.902344 62.132812 C 74.96875 62.121094 75.058594 62.144531 75.136719 62.265625 L 75.882812 63.394531 C 75.941406 63.46875 75.917969 63.570312 75.839844 63.625 C 75.761719 63.683594 75.660156 63.660156 75.605469 63.582031 L 74.925781 62.566406 C 74.6875 62.980469 74.398438 63.359375 74.050781 63.695312 C 74.042969 63.714844 73.996094 63.726562 73.953125 63.726562 Z M 73.953125 63.726562 " fill-opacity="1" fill-rule="nonzero"/><g clip-path="url(#10c82ce120)"><path fill="#7ed957" d="M 74.957031 64.574219 C 74.867188 64.574219 74.789062 64.496094 74.789062 64.40625 C 74.824219 59.625 74.835938 54.777344 74.835938 50.007812 C 74.835938 49.917969 74.914062 49.839844 75.003906 49.839844 C 75.089844 49.839844 75.167969 49.917969 75.167969 50.007812 C 75.167969 54.777344 75.148438 59.625 75.125 64.40625 C 75.125 64.496094 75.046875 64.574219 74.957031 64.574219 Z M 74.957031 64.574219 " fill-opacity="1" fill-rule="nonzero"/></g><path fill="#7ed957" d="M 74.746094 62.46875 C 74.6875 62.46875 74.621094 62.433594 74.601562 62.378906 L 73.863281 60.984375 C 73.449219 60.207031 73.011719 59.390625 72.722656 58.535156 C 71.75 55.648438 72.601562 52.238281 74.8125 50.050781 C 74.878906 49.984375 74.980469 49.984375 75.046875 50.050781 C 75.113281 50.121094 75.113281 50.21875 75.046875 50.285156 C 72.914062 52.382812 72.109375 55.660156 73.035156 58.421875 C 73.316406 59.257812 73.738281 60.050781 74.152344 60.828125 L 74.890625 62.222656 C 74.933594 62.300781 74.902344 62.402344 74.824219 62.445312 C 74.800781 62.457031 74.777344 62.46875 74.746094 62.46875 Z M 74.746094 62.46875 " fill-opacity="1" fill-rule="nonzero"/><path fill="#7ed957" d="M 74.699219 62.378906 C 74.667969 62.378906 74.644531 62.367188 74.609375 62.355469 C 73.371094 61.621094 72.109375 60.773438 71.304688 59.570312 C 70.265625 58.03125 69.972656 56.003906 70.53125 54.144531 C 71.148438 52.070312 72.554688 50.6875 74.824219 49.90625 C 74.914062 49.875 75.003906 49.917969 75.035156 50.007812 C 75.070312 50.097656 75.023438 50.1875 74.933594 50.21875 C 72.769531 50.964844 71.4375 52.269531 70.855469 54.230469 C 70.332031 55.992188 70.609375 57.910156 71.59375 59.371094 C 72.367188 60.515625 73.582031 61.34375 74.800781 62.054688 C 74.878906 62.101562 74.902344 62.199219 74.855469 62.289062 C 74.8125 62.355469 74.757812 62.378906 74.699219 62.378906 Z M 74.699219 62.378906 " fill-opacity="1" fill-rule="nonzero"/><path fill="#7ed957" d="M 75.191406 62.402344 C 75.167969 62.402344 75.136719 62.390625 75.113281 62.378906 C 75.035156 62.332031 75.003906 62.234375 75.046875 62.15625 L 75.785156 60.761719 C 76.199219 59.992188 76.621094 59.191406 76.902344 58.355469 C 77.828125 55.589844 77.023438 52.316406 74.890625 50.21875 C 74.824219 50.152344 74.824219 50.050781 74.890625 49.984375 C 74.957031 49.917969 75.058594 49.917969 75.125 49.984375 C 77.347656 52.171875 78.1875 55.582031 77.214844 58.464844 C 76.921875 59.324219 76.5 60.136719 76.074219 60.917969 L 75.335938 62.3125 C 75.304688 62.367188 75.246094 62.402344 75.191406 62.402344 Z M 75.191406 62.402344 " fill-opacity="1" fill-rule="nonzero"/><path fill="#7ed957" d="M 75.238281 62.324219 C 75.179688 62.324219 75.125 62.289062 75.089844 62.246094 C 75.046875 62.167969 75.070312 62.066406 75.148438 62.011719 C 76.355469 61.296875 77.582031 60.472656 78.355469 59.324219 C 79.335938 57.863281 79.605469 55.9375 79.089844 54.1875 C 78.511719 52.226562 77.167969 50.910156 75.011719 50.175781 C 74.925781 50.140625 74.878906 50.050781 74.914062 49.964844 C 74.945312 49.875 75.035156 49.828125 75.125 49.863281 C 77.402344 50.644531 78.800781 52.023438 79.414062 54.097656 C 79.960938 55.949219 79.671875 57.976562 78.644531 59.527344 C 77.839844 60.730469 76.578125 61.574219 75.335938 62.3125 C 75.292969 62.3125 75.257812 62.324219 75.238281 62.324219 Z M 75.238281 62.324219 " fill-opacity="1" fill-rule="nonzero"/><g fill="#7ed957" fill-opacity="1"><g transform="translate(42.585819, 77.780582)"><g><path d="M 1.9375 0.09375 C 1.625 0.09375 1.335938 0.015625 1.078125 -0.140625 C 0.828125 -0.304688 0.625 -0.519531 0.46875 -0.78125 C 0.320312 -1.039062 0.25 -1.335938 0.25 -1.671875 L 0.25 -4.421875 C 0.25 -4.742188 0.320312 -5.035156 0.46875 -5.296875 C 0.625 -5.554688 0.832031 -5.765625 1.09375 -5.921875 C 1.351562 -6.085938 1.632812 -6.171875 1.9375 -6.171875 C 2.257812 -6.171875 2.550781 -6.09375 2.8125 -5.9375 C 3.070312 -5.78125 3.273438 -5.570312 3.421875 -5.3125 C 3.578125 -5.050781 3.65625 -4.753906 3.65625 -4.421875 L 3.65625 -4.03125 C 3.65625 -4.007812 3.640625 -4 3.609375 -4 L 2.640625 -4 C 2.609375 -4 2.59375 -4.007812 2.59375 -4.03125 L 2.59375 -4.359375 C 2.59375 -4.578125 2.53125 -4.757812 2.40625 -4.90625 C 2.28125 -5.050781 2.125 -5.125 1.9375 -5.125 C 1.769531 -5.125 1.617188 -5.050781 1.484375 -4.90625 C 1.359375 -4.769531 1.296875 -4.609375 1.296875 -4.421875 L 1.296875 -1.671875 C 1.296875 -1.472656 1.359375 -1.304688 1.484375 -1.171875 C 1.617188 -1.035156 1.769531 -0.96875 1.9375 -0.96875 C 2.125 -0.96875 2.28125 -1.035156 2.40625 -1.171875 C 2.53125 -1.304688 2.59375 -1.472656 2.59375 -1.671875 L 2.59375 -2.09375 L 1.984375 -2.09375 C 1.953125 -2.09375 1.9375 -2.109375 1.9375 -2.140625 L 1.9375 -3.109375 C 1.9375 -3.140625 1.953125 -3.15625 1.984375 -3.15625 L 3.625 -3.15625 C 3.644531 -3.15625 3.65625 -3.140625 3.65625 -3.109375 L 3.65625 -1.671875 C 3.65625 -1.335938 3.578125 -1.039062 3.421875 -0.78125 C 3.265625 -0.519531 3.054688 -0.304688 2.796875 -0.140625 C 2.546875 0.015625 2.257812 0.09375 1.9375 0.09375 Z M 1.9375 0.09375 "/></g></g></g><g fill="#7ed957" fill-opacity="1"><g transform="translate(48.361089, 77.780582)"><g><path d="M 0.390625 0 C 0.359375 0 0.34375 -0.015625 0.34375 -0.046875 L 0.359375 -6.03125 C 0.359375 -6.050781 0.375 -6.0625 0.40625 -6.0625 L 2.15625 -6.0625 C 2.476562 -6.0625 2.769531 -5.984375 3.03125 -5.828125 C 3.289062 -5.679688 3.5 -5.476562 3.65625 -5.21875 C 3.8125 -4.957031 3.890625 -4.664062 3.890625 -4.34375 C 3.890625 -4.125 3.859375 -3.925781 3.796875 -3.75 C 3.734375 -3.582031 3.65625 -3.4375 3.5625 -3.3125 C 3.476562 -3.195312 3.40625 -3.113281 3.34375 -3.0625 C 3.65625 -2.707031 3.8125 -2.296875 3.8125 -1.828125 L 3.8125 -0.046875 C 3.8125 -0.015625 3.800781 0 3.78125 0 L 2.796875 0 C 2.765625 0 2.75 -0.0078125 2.75 -0.03125 L 2.75 -1.828125 C 2.75 -2.035156 2.675781 -2.21875 2.53125 -2.375 C 2.382812 -2.53125 2.203125 -2.609375 1.984375 -2.609375 L 1.40625 -2.609375 L 1.40625 -0.046875 C 1.40625 -0.015625 1.394531 0 1.375 0 Z M 1.40625 -3.65625 L 2.15625 -3.65625 C 2.34375 -3.65625 2.503906 -3.71875 2.640625 -3.84375 C 2.773438 -3.976562 2.84375 -4.144531 2.84375 -4.34375 C 2.84375 -4.53125 2.773438 -4.6875 2.640625 -4.8125 C 2.503906 -4.945312 2.34375 -5.015625 2.15625 -5.015625 L 1.40625 -5.015625 Z M 1.40625 -3.65625 "/></g></g></g><g fill="#7ed957" fill-opacity="1"><g transform="translate(54.415498, 77.780582)"><g><path d="M 0.390625 0 C 0.359375 0 0.34375 -0.015625 0.34375 -0.046875 L 0.359375 -6.03125 C 0.359375 -6.050781 0.367188 -6.0625 0.390625 -6.0625 L 3.1875 -6.0625 C 3.207031 -6.0625 3.21875 -6.050781 3.21875 -6.03125 L 3.21875 -5.046875 C 3.21875 -5.023438 3.207031 -5.015625 3.1875 -5.015625 L 1.40625 -5.015625 L 1.40625 -3.65625 L 3.1875 -3.65625 C 3.207031 -3.65625 3.21875 -3.644531 3.21875 -3.625 L 3.234375 -2.640625 C 3.234375 -2.609375 3.222656 -2.59375 3.203125 -2.59375 L 1.40625 -2.59375 L 1.40625 -1.078125 L 3.203125 -1.078125 C 3.222656 -1.078125 3.234375 -1.0625 3.234375 -1.03125 L 3.234375 -0.03125 C 3.234375 -0.0078125 3.222656 0 3.203125 0 Z M 0.390625 0 "/></g></g></g><g fill="#7ed957" fill-opacity="1"><g transform="translate(59.929074, 77.780582)"><g><path d="M 0.390625 0 C 0.359375 0 0.34375 -0.015625 0.34375 -0.046875 L 0.359375 -6.03125 C 0.359375 -6.050781 0.367188 -6.0625 0.390625 -6.0625 L 3.1875 -6.0625 C 3.207031 -6.0625 3.21875 -6.050781 3.21875 -6.03125 L 3.21875 -5.046875 C 3.21875 -5.023438 3.207031 -5.015625 3.1875 -5.015625 L 1.40625 -5.015625 L 1.40625 -3.65625 L 3.1875 -3.65625 C 3.207031 -3.65625 3.21875 -3.644531 3.21875 -3.625 L 3.234375 -2.640625 C 3.234375 -2.609375 3.222656 -2.59375 3.203125 -2.59375 L 1.40625 -2.59375 L 1.40625 -1.078125 L 3.203125 -1.078125 C 3.222656 -1.078125 3.234375 -1.0625 3.234375 -1.03125 L 3.234375 -0.03125 C 3.234375 -0.0078125 3.222656 0 3.203125 0 Z M 0.390625 0 "/></g></g></g><g fill="#7ed957" fill-opacity="1"><g transform="translate(65.442649, 77.780582)"><g><path d="M 0.421875 0 C 0.378906 0 0.359375 -0.0195312 0.359375 -0.0625 L 0.34375 -6 C 0.34375 -6.039062 0.367188 -6.0625 0.421875 -6.0625 L 1.203125 -6.0625 L 2.671875 -2.640625 L 2.640625 -6 C 2.640625 -6.039062 2.664062 -6.0625 2.71875 -6.0625 L 3.578125 -6.0625 C 3.609375 -6.0625 3.625 -6.039062 3.625 -6 L 3.640625 -0.046875 C 3.640625 -0.015625 3.625 0 3.59375 0 L 2.828125 0 L 1.3125 -3.203125 L 1.375 -0.0625 C 1.375 -0.0195312 1.347656 0 1.296875 0 Z M 0.421875 0 "/></g></g></g><g fill="#7ed957" fill-opacity="1"><g transform="translate(71.340044, 77.780582)"><g/></g></g><g fill="#7ed957" fill-opacity="1"><g transform="translate(74.48094, 77.780582)"><g><path d="M 1.9375 0.09375 C 1.625 0.09375 1.335938 0.015625 1.078125 -0.140625 C 0.828125 -0.304688 0.625 -0.519531 0.46875 -0.78125 C 0.320312 -1.039062 0.25 -1.335938 0.25 -1.671875 L 0.25 -4.421875 C 0.25 -4.742188 0.320312 -5.035156 0.46875 -5.296875 C 0.625 -5.554688 0.832031 -5.765625 1.09375 -5.921875 C 1.351562 -6.085938 1.632812 -6.171875 1.9375 -6.171875 C 2.257812 -6.171875 2.550781 -6.09375 2.8125 -5.9375 C 3.070312 -5.78125 3.273438 -5.570312 3.421875 -5.3125 C 3.578125 -5.050781 3.65625 -4.753906 3.65625 -4.421875 L 3.65625 -4.03125 C 3.65625 -4.007812 3.640625 -4 3.609375 -4 L 2.640625 -4 C 2.609375 -4 2.59375 -4.007812 2.59375 -4.03125 L 2.59375 -4.359375 C 2.59375 -4.578125 2.53125 -4.757812 2.40625 -4.90625 C 2.28125 -5.050781 2.125 -5.125 1.9375 -5.125 C 1.769531 -5.125 1.617188 -5.050781 1.484375 -4.90625 C 1.359375 -4.769531 1.296875 -4.609375 1.296875 -4.421875 L 1.296875 -1.671875 C 1.296875 -1.472656 1.359375 -1.304688 1.484375 -1.171875 C 1.617188 -1.035156 1.769531 -0.96875 1.9375 -0.96875 C 2.125 -0.96875 2.28125 -1.035156 2.40625 -1.171875 C 2.53125 -1.304688 2.59375 -1.472656 2.59375 -1.671875 L 2.59375 -2.09375 L 1.984375 -2.09375 C 1.953125 -2.09375 1.9375 -2.109375 1.9375 -2.140625 L 1.9375 -3.109375 C 1.9375 -3.140625 1.953125 -3.15625 1.984375 -3.15625 L 3.625 -3.15625 C 3.644531 -3.15625 3.65625 -3.140625 3.65625 -3.109375 L 3.65625 -1.671875 C 3.65625 -1.335938 3.578125 -1.039062 3.421875 -0.78125 C 3.265625 -0.519531 3.054688 -0.304688 2.796875 -0.140625 C 2.546875 0.015625 2.257812 0.09375 1.9375 0.09375 Z M 1.9375 0.09375 "/></g></g></g><g fill="#7ed957" fill-opacity="1"><g transform="translate(80.256209, 77.780582)"><g><path d="M 0.046875 -0.046875 L 1.140625 -6.03125 C 1.140625 -6.050781 1.148438 -6.0625 1.171875 -6.0625 L 2.4375 -6.0625 C 2.457031 -6.0625 2.472656 -6.050781 2.484375 -6.03125 L 3.515625 -0.046875 C 3.523438 -0.015625 3.515625 0 3.484375 0 L 2.515625 0 C 2.492188 0 2.476562 -0.015625 2.46875 -0.046875 L 2.375 -0.6875 L 1.1875 -0.6875 L 1.09375 -0.046875 C 1.09375 -0.015625 1.082031 0 1.0625 0 L 0.09375 0 C 0.0625 0 0.046875 -0.015625 0.046875 -0.046875 Z M 1.375 -1.609375 L 2.203125 -1.609375 L 1.84375 -4.0625 L 1.796875 -4.390625 L 1.765625 -4.0625 Z M 1.375 -1.609375 "/></g></g></g><g fill="#7ed957" fill-opacity="1"><g transform="translate(85.830847, 77.780582)"><g><path d="M 0.390625 0 C 0.359375 0 0.34375 -0.015625 0.34375 -0.046875 L 0.359375 -6.03125 C 0.359375 -6.050781 0.375 -6.0625 0.40625 -6.0625 L 2.15625 -6.0625 C 2.476562 -6.0625 2.769531 -5.984375 3.03125 -5.828125 C 3.289062 -5.679688 3.5 -5.476562 3.65625 -5.21875 C 3.8125 -4.957031 3.890625 -4.664062 3.890625 -4.34375 C 3.890625 -4.125 3.859375 -3.925781 3.796875 -3.75 C 3.734375 -3.582031 3.65625 -3.4375 3.5625 -3.3125 C 3.476562 -3.195312 3.40625 -3.113281 3.34375 -3.0625 C 3.65625 -2.707031 3.8125 -2.296875 3.8125 -1.828125 L 3.8125 -0.046875 C 3.8125 -0.015625 3.800781 0 3.78125 0 L 2.796875 0 C 2.765625 0 2.75 -0.0078125 2.75 -0.03125 L 2.75 -1.828125 C 2.75 -2.035156 2.675781 -2.21875 2.53125 -2.375 C 2.382812 -2.53125 2.203125 -2.609375 1.984375 -2.609375 L 1.40625 -2.609375 L 1.40625 -0.046875 C 1.40625 -0.015625 1.394531 0 1.375 0 Z M 1.40625 -3.65625 L 2.15625 -3.65625 C 2.34375 -3.65625 2.503906 -3.71875 2.640625 -3.84375 C 2.773438 -3.976562 2.84375 -4.144531 2.84375 -4.34375 C 2.84375 -4.53125 2.773438 -4.6875 2.640625 -4.8125 C 2.503906 -4.945312 2.34375 -5.015625 2.15625 -5.015625 L 1.40625 -5.015625 Z M 1.40625 -3.65625 "/></g></g></g><g fill="#7ed957" fill-opacity="1"><g transform="translate(91.885256, 77.780582)"><g><path d="M 0.390625 0 C 0.359375 0 0.34375 -0.015625 0.34375 -0.046875 L 0.359375 -6.03125 C 0.359375 -6.050781 0.375 -6.0625 0.40625 -6.0625 L 2.03125 -6.078125 C 2.351562 -6.078125 2.644531 -6 2.90625 -5.84375 C 3.164062 -5.6875 3.375 -5.476562 3.53125 -5.21875 C 3.695312 -4.957031 3.78125 -4.664062 3.78125 -4.34375 L 3.78125 -1.84375 C 3.78125 -1.5 3.695312 -1.1875 3.53125 -0.90625 C 3.363281 -0.632812 3.144531 -0.414062 2.875 -0.25 C 2.601562 -0.09375 2.296875 -0.015625 1.953125 -0.015625 Z M 1.40625 -1.078125 L 1.953125 -1.078125 C 2.171875 -1.078125 2.351562 -1.148438 2.5 -1.296875 C 2.644531 -1.453125 2.71875 -1.632812 2.71875 -1.84375 L 2.71875 -4.34375 C 2.71875 -4.53125 2.648438 -4.691406 2.515625 -4.828125 C 2.378906 -4.972656 2.21875 -5.039062 2.03125 -5.03125 L 1.421875 -5.015625 Z M 1.40625 -1.078125 "/></g></g></g><g fill="#7ed957" fill-opacity="1"><g transform="translate(97.852433, 77.780582)"><g><path d="M 0.390625 0 C 0.359375 0 0.34375 -0.015625 0.34375 -0.046875 L 0.359375 -6.03125 C 0.359375 -6.050781 0.367188 -6.0625 0.390625 -6.0625 L 3.1875 -6.0625 C 3.207031 -6.0625 3.21875 -6.050781 3.21875 -6.03125 L 3.21875 -5.046875 C 3.21875 -5.023438 3.207031 -5.015625 3.1875 -5.015625 L 1.40625 -5.015625 L 1.40625 -3.65625 L 3.1875 -3.65625 C 3.207031 -3.65625 3.21875 -3.644531 3.21875 -3.625 L 3.234375 -2.640625 C 3.234375 -2.609375 3.222656 -2.59375 3.203125 -2.59375 L 1.40625 -2.59375 L 1.40625 -1.078125 L 3.203125 -1.078125 C 3.222656 -1.078125 3.234375 -1.0625 3.234375 -1.03125 L 3.234375 -0.03125 C 3.234375 -0.0078125 3.222656 0 3.203125 0 Z M 0.390625 0 "/></g></g></g><g fill="#7ed957" fill-opacity="1"><g transform="translate(103.366008, 77.780582)"><g><path d="M 0.421875 0 C 0.378906 0 0.359375 -0.0195312 0.359375 -0.0625 L 0.34375 -6 C 0.34375 -6.039062 0.367188 -6.0625 0.421875 -6.0625 L 1.203125 -6.0625 L 2.671875 -2.640625 L 2.640625 -6 C 2.640625 -6.039062 2.664062 -6.0625 2.71875 -6.0625 L 3.578125 -6.0625 C 3.609375 -6.0625 3.625 -6.039062 3.625 -6 L 3.640625 -0.046875 C 3.640625 -0.015625 3.625 0 3.59375 0 L 2.828125 0 L 1.3125 -3.203125 L 1.375 -0.0625 C 1.375 -0.0195312 1.347656 0 1.296875 0 Z M 0.421875 0 "/></g></g></g><g fill="#7ed957" fill-opacity="1"><g transform="translate(62.723608, 85.001249)"><g><path d="M 2.859375 -0.3125 L 2.859375 0 L 0.453125 0 L 0.453125 -3.59375 L 2.8125 -3.59375 L 2.8125 -3.28125 L 0.8125 -3.28125 L 0.8125 -1.984375 L 2.5625 -1.984375 L 2.5625 -1.6875 L 0.8125 -1.6875 L 0.8125 -0.3125 Z M 2.859375 -0.3125 "/></g></g></g><g fill="#7ed957" fill-opacity="1"><g transform="translate(66.611599, 85.001249)"><g><path d="M 1.71875 0.046875 C 1.5 0.046875 1.300781 -0.00390625 1.125 -0.109375 C 0.957031 -0.222656 0.820312 -0.367188 0.71875 -0.546875 L 0.71875 1.078125 L 0.375 1.078125 L 0.375 -2.640625 L 0.6875 -2.640625 L 0.6875 -2.125 C 0.789062 -2.289062 0.925781 -2.425781 1.09375 -2.53125 C 1.269531 -2.632812 1.460938 -2.6875 1.671875 -2.6875 C 1.847656 -2.6875 2.015625 -2.644531 2.171875 -2.5625 C 2.328125 -2.488281 2.457031 -2.390625 2.5625 -2.265625 C 2.675781 -2.140625 2.765625 -1.992188 2.828125 -1.828125 C 2.890625 -1.660156 2.921875 -1.488281 2.921875 -1.3125 C 2.921875 -1.125 2.890625 -0.945312 2.828125 -0.78125 C 2.773438 -0.625 2.695312 -0.484375 2.59375 -0.359375 C 2.488281 -0.234375 2.359375 -0.132812 2.203125 -0.0625 C 2.054688 0.0078125 1.894531 0.046875 1.71875 0.046875 Z M 1.625 -0.25 C 1.769531 -0.25 1.898438 -0.28125 2.015625 -0.34375 C 2.128906 -0.40625 2.226562 -0.484375 2.3125 -0.578125 C 2.394531 -0.679688 2.457031 -0.796875 2.5 -0.921875 C 2.550781 -1.046875 2.578125 -1.175781 2.578125 -1.3125 C 2.578125 -1.457031 2.550781 -1.59375 2.5 -1.71875 C 2.445312 -1.84375 2.375 -1.953125 2.28125 -2.046875 C 2.195312 -2.148438 2.09375 -2.226562 1.96875 -2.28125 C 1.851562 -2.34375 1.726562 -2.375 1.59375 -2.375 C 1.5 -2.375 1.40625 -2.351562 1.3125 -2.3125 C 1.21875 -2.28125 1.128906 -2.234375 1.046875 -2.171875 C 0.960938 -2.117188 0.890625 -2.050781 0.828125 -1.96875 C 0.773438 -1.894531 0.738281 -1.8125 0.71875 -1.71875 L 0.71875 -0.921875 C 0.757812 -0.828125 0.8125 -0.738281 0.875 -0.65625 C 0.9375 -0.570312 1.003906 -0.5 1.078125 -0.4375 C 1.160156 -0.382812 1.25 -0.335938 1.34375 -0.296875 C 1.4375 -0.265625 1.53125 -0.25 1.625 -0.25 Z M 1.625 -0.25 "/></g></g></g><g fill="#7ed957" fill-opacity="1"><g transform="translate(70.54008, 85.001249)"><g><path d="M 0.375 0 L 0.375 -2.640625 L 0.71875 -2.640625 L 0.71875 0 Z M 0.375 -3.1875 L 0.375 -3.703125 L 0.71875 -3.703125 L 0.71875 -3.1875 Z M 0.375 -3.1875 "/></g></g></g><g fill="#7ed957" fill-opacity="1"><g transform="translate(72.449059, 85.001249)"><g><path d="M 0.203125 -1.328125 C 0.203125 -1.515625 0.234375 -1.6875 0.296875 -1.84375 C 0.359375 -2.007812 0.445312 -2.15625 0.5625 -2.28125 C 0.675781 -2.40625 0.8125 -2.503906 0.96875 -2.578125 C 1.132812 -2.648438 1.316406 -2.6875 1.515625 -2.6875 C 1.765625 -2.6875 1.984375 -2.628906 2.171875 -2.515625 C 2.359375 -2.398438 2.5 -2.25 2.59375 -2.0625 L 2.265625 -1.953125 C 2.179688 -2.085938 2.070312 -2.191406 1.9375 -2.265625 C 1.8125 -2.335938 1.664062 -2.375 1.5 -2.375 C 1.363281 -2.375 1.238281 -2.347656 1.125 -2.296875 C 1.007812 -2.242188 0.90625 -2.171875 0.8125 -2.078125 C 0.726562 -1.984375 0.660156 -1.867188 0.609375 -1.734375 C 0.566406 -1.609375 0.546875 -1.472656 0.546875 -1.328125 C 0.546875 -1.179688 0.570312 -1.039062 0.625 -0.90625 C 0.675781 -0.769531 0.742188 -0.65625 0.828125 -0.5625 C 0.921875 -0.46875 1.023438 -0.390625 1.140625 -0.328125 C 1.253906 -0.273438 1.378906 -0.25 1.515625 -0.25 C 1.597656 -0.25 1.679688 -0.257812 1.765625 -0.28125 C 1.847656 -0.3125 1.921875 -0.347656 1.984375 -0.390625 C 2.054688 -0.429688 2.117188 -0.476562 2.171875 -0.53125 C 2.222656 -0.582031 2.257812 -0.640625 2.28125 -0.703125 L 2.625 -0.609375 C 2.582031 -0.503906 2.523438 -0.410156 2.453125 -0.328125 C 2.378906 -0.253906 2.296875 -0.1875 2.203125 -0.125 C 2.109375 -0.0703125 2.003906 -0.03125 1.890625 0 C 1.773438 0.03125 1.65625 0.046875 1.53125 0.046875 C 1.332031 0.046875 1.148438 0.0078125 0.984375 -0.0625 C 0.828125 -0.132812 0.6875 -0.234375 0.5625 -0.359375 C 0.445312 -0.484375 0.359375 -0.628906 0.296875 -0.796875 C 0.234375 -0.960938 0.203125 -1.140625 0.203125 -1.328125 Z M 0.203125 -1.328125 "/></g></g></g><g fill="#7ed957" fill-opacity="1"><g transform="translate(76.033364, 85.001249)"><g><path d="M 1.515625 0.046875 C 1.328125 0.046875 1.148438 0.0078125 0.984375 -0.0625 C 0.828125 -0.132812 0.6875 -0.234375 0.5625 -0.359375 C 0.445312 -0.484375 0.359375 -0.628906 0.296875 -0.796875 C 0.234375 -0.960938 0.203125 -1.140625 0.203125 -1.328125 C 0.203125 -1.515625 0.234375 -1.6875 0.296875 -1.84375 C 0.359375 -2.007812 0.445312 -2.15625 0.5625 -2.28125 C 0.6875 -2.40625 0.828125 -2.503906 0.984375 -2.578125 C 1.148438 -2.648438 1.328125 -2.6875 1.515625 -2.6875 C 1.703125 -2.6875 1.875 -2.648438 2.03125 -2.578125 C 2.195312 -2.503906 2.335938 -2.40625 2.453125 -2.28125 C 2.566406 -2.15625 2.65625 -2.007812 2.71875 -1.84375 C 2.78125 -1.6875 2.8125 -1.515625 2.8125 -1.328125 C 2.8125 -1.304688 2.8125 -1.28125 2.8125 -1.25 C 2.8125 -1.21875 2.8125 -1.195312 2.8125 -1.1875 L 0.5625 -1.1875 C 0.570312 -1.050781 0.601562 -0.921875 0.65625 -0.796875 C 0.707031 -0.679688 0.773438 -0.578125 0.859375 -0.484375 C 0.953125 -0.398438 1.054688 -0.332031 1.171875 -0.28125 C 1.285156 -0.238281 1.40625 -0.21875 1.53125 -0.21875 C 1.613281 -0.21875 1.695312 -0.226562 1.78125 -0.25 C 1.863281 -0.269531 1.941406 -0.300781 2.015625 -0.34375 C 2.085938 -0.382812 2.148438 -0.429688 2.203125 -0.484375 C 2.265625 -0.546875 2.3125 -0.613281 2.34375 -0.6875 L 2.640625 -0.609375 C 2.597656 -0.503906 2.539062 -0.410156 2.46875 -0.328125 C 2.394531 -0.253906 2.304688 -0.1875 2.203125 -0.125 C 2.109375 -0.0703125 2.003906 -0.03125 1.890625 0 C 1.773438 0.03125 1.648438 0.046875 1.515625 0.046875 Z M 2.484375 -1.453125 C 2.472656 -1.597656 2.441406 -1.726562 2.390625 -1.84375 C 2.335938 -1.957031 2.265625 -2.054688 2.171875 -2.140625 C 2.085938 -2.222656 1.988281 -2.289062 1.875 -2.34375 C 1.769531 -2.394531 1.648438 -2.421875 1.515625 -2.421875 C 1.390625 -2.421875 1.269531 -2.394531 1.15625 -2.34375 C 1.039062 -2.289062 0.9375 -2.222656 0.84375 -2.140625 C 0.757812 -2.054688 0.691406 -1.957031 0.640625 -1.84375 C 0.585938 -1.726562 0.554688 -1.597656 0.546875 -1.453125 Z M 2.484375 -1.453125 "/></g></g></g><g fill="#7ed957" fill-opacity="1"><g transform="translate(79.810004, 85.001249)"><g><path d="M 1.703125 -2.328125 C 1.460938 -2.328125 1.253906 -2.265625 1.078125 -2.140625 C 0.910156 -2.015625 0.789062 -1.847656 0.71875 -1.640625 L 0.71875 0 L 0.375 0 L 0.375 -2.640625 L 0.703125 -2.640625 L 0.703125 -2 C 0.796875 -2.207031 0.925781 -2.367188 1.09375 -2.484375 C 1.257812 -2.597656 1.4375 -2.65625 1.625 -2.65625 C 1.65625 -2.65625 1.679688 -2.648438 1.703125 -2.640625 Z M 1.703125 -2.328125 "/></g></g></g><g fill="#7ed957" fill-opacity="1"><g transform="translate(82.392151, 85.001249)"><g><path d="M 0.375 0 L 0.375 -2.640625 L 0.71875 -2.640625 L 0.71875 0 Z M 0.375 -3.1875 L 0.375 -3.703125 L 0.71875 -3.703125 L 0.71875 -3.1875 Z M 0.375 -3.1875 "/></g></g></g><g fill="#7ed957" fill-opacity="1"><g transform="translate(84.301128, 85.001249)"><g><path d="M 1.515625 0.046875 C 1.328125 0.046875 1.148438 0.0078125 0.984375 -0.0625 C 0.828125 -0.132812 0.6875 -0.234375 0.5625 -0.359375 C 0.445312 -0.484375 0.359375 -0.628906 0.296875 -0.796875 C 0.234375 -0.960938 0.203125 -1.140625 0.203125 -1.328125 C 0.203125 -1.515625 0.234375 -1.6875 0.296875 -1.84375 C 0.359375 -2.007812 0.445312 -2.15625 0.5625 -2.28125 C 0.6875 -2.40625 0.828125 -2.503906 0.984375 -2.578125 C 1.148438 -2.648438 1.328125 -2.6875 1.515625 -2.6875 C 1.703125 -2.6875 1.875 -2.648438 2.03125 -2.578125 C 2.195312 -2.503906 2.335938 -2.40625 2.453125 -2.28125 C 2.566406 -2.15625 2.65625 -2.007812 2.71875 -1.84375 C 2.78125 -1.6875 2.8125 -1.515625 2.8125 -1.328125 C 2.8125 -1.304688 2.8125 -1.28125 2.8125 -1.25 C 2.8125 -1.21875 2.8125 -1.195312 2.8125 -1.1875 L 0.5625 -1.1875 C 0.570312 -1.050781 0.601562 -0.921875 0.65625 -0.796875 C 0.707031 -0.679688 0.773438 -0.578125 0.859375 -0.484375 C 0.953125 -0.398438 1.054688 -0.332031 1.171875 -0.28125 C 1.285156 -0.238281 1.40625 -0.21875 1.53125 -0.21875 C 1.613281 -0.21875 1.695312 -0.226562 1.78125 -0.25 C 1.863281 -0.269531 1.941406 -0.300781 2.015625 -0.34375 C 2.085938 -0.382812 2.148438 -0.429688 2.203125 -0.484375 C 2.265625 -0.546875 2.3125 -0.613281 2.34375 -0.6875 L 2.640625 -0.609375 C 2.597656 -0.503906 2.539062 -0.410156 2.46875 -0.328125 C 2.394531 -0.253906 2.304688 -0.1875 2.203125 -0.125 C 2.109375 -0.0703125 2.003906 -0.03125 1.890625 0 C 1.773438 0.03125 1.648438 0.046875 1.515625 0.046875 Z M 2.484375 -1.453125 C 2.472656 -1.597656 2.441406 -1.726562 2.390625 -1.84375 C 2.335938 -1.957031 2.265625 -2.054688 2.171875 -2.140625 C 2.085938 -2.222656 1.988281 -2.289062 1.875 -2.34375 C 1.769531 -2.394531 1.648438 -2.421875 1.515625 -2.421875 C 1.390625 -2.421875 1.269531 -2.394531 1.15625 -2.34375 C 1.039062 -2.289062 0.9375 -2.222656 0.84375 -2.140625 C 0.757812 -2.054688 0.691406 -1.957031 0.640625 -1.84375 C 0.585938 -1.726562 0.554688 -1.597656 0.546875 -1.453125 Z M 2.484375 -1.453125 "/></g></g></g></svg>